<?xml version="1.0" encoding="utf-8" standalone="no"?>
<!DOCTYPE svg PUBLIC "-//W3C//DTD SVG 1.1//EN"
  "http://www.w3.org/Graphics/SVG/1.1/DTD/svg11.dtd">
<svg xmlns:xlink="http://www.w3.org/1999/xlink" width="928.29875pt" height="493.49575pt" viewBox="0 0 928.29875 493.49575" xmlns="http://www.w3.org/2000/svg" version="1.1">
 <metadata>
  <rdf:RDF xmlns:dc="http://purl.org/dc/elements/1.1/" xmlns:cc="http://creativecommons.org/ns#" xmlns:rdf="http://www.w3.org/1999/02/22-rdf-syntax-ns#">
   <cc:Work>
    <dc:type rdf:resource="http://purl.org/dc/dcmitype/StillImage"/>
    <dc:date>2025-09-02T18:48:36.940724</dc:date>
    <dc:format>image/svg+xml</dc:format>
    <dc:creator>
     <cc:Agent>
      <dc:title>Matplotlib v3.10.6, https://matplotlib.org/</dc:title>
     </cc:Agent>
    </dc:creator>
   </cc:Work>
  </rdf:RDF>
 </metadata>
 <defs>
  <style type="text/css">*{stroke-linejoin: round; stroke-linecap: butt}</style>
 </defs>
 <g id="figure_1">
  <g id="patch_1">
   <path d="M 0 493.49575 
L 928.29875 493.49575 
L 928.29875 0 
L 0 0 
z
" style="fill: #ffffff"/>
  </g>
  <g id="axes_1">
   <g id="patch_2">
    <path d="M 40.603125 455.9395 
L 909.983125 455.9395 
L 909.983125 35.7555 
L 40.603125 35.7555 
z
" style="fill: #ffffff"/>
   </g>
   <g id="matplotlib.axis_1">
    <g id="xtick_1">
     <g id="line2d_1">
      <path d="M 40.603125 455.9395 
L 40.603125 35.7555 
" clip-path="url(#pe1f3085670)" style="fill: none; stroke-dasharray: 2.59,1.12; stroke-dashoffset: 0; stroke: #b0b0b0; stroke-opacity: 0.33; stroke-width: 0.7"/>
     </g>
     <g id="line2d_2">
      <defs>
       <path id="m7fbc46ebe9" d="M 0 0 
L 0 3.5 
" style="stroke: #000000; stroke-width: 0.8"/>
      </defs>
      <g>
       <use xlink:href="#m7fbc46ebe9" x="40.603125" y="455.9395" style="stroke: #000000; stroke-width: 0.8"/>
      </g>
     </g>
     <g id="text_1">
      <!-- 8am -->
      <g transform="translate(29.4875 470.537938) scale(0.1 -0.1)">
       <defs>
        <path id="DejaVuSans-38" d="M 2034 2216 
Q 1584 2216 1326 1975 
Q 1069 1734 1069 1313 
Q 1069 891 1326 650 
Q 1584 409 2034 409 
Q 2484 409 2743 651 
Q 3003 894 3003 1313 
Q 3003 1734 2745 1975 
Q 2488 2216 2034 2216 
z
M 1403 2484 
Q 997 2584 770 2862 
Q 544 3141 544 3541 
Q 544 4100 942 4425 
Q 1341 4750 2034 4750 
Q 2731 4750 3128 4425 
Q 3525 4100 3525 3541 
Q 3525 3141 3298 2862 
Q 3072 2584 2669 2484 
Q 3125 2378 3379 2068 
Q 3634 1759 3634 1313 
Q 3634 634 3220 271 
Q 2806 -91 2034 -91 
Q 1263 -91 848 271 
Q 434 634 434 1313 
Q 434 1759 690 2068 
Q 947 2378 1403 2484 
z
M 1172 3481 
Q 1172 3119 1398 2916 
Q 1625 2713 2034 2713 
Q 2441 2713 2670 2916 
Q 2900 3119 2900 3481 
Q 2900 3844 2670 4047 
Q 2441 4250 2034 4250 
Q 1625 4250 1398 4047 
Q 1172 3844 1172 3481 
z
" transform="scale(0.015625)"/>
        <path id="DejaVuSans-61" d="M 2194 1759 
Q 1497 1759 1228 1600 
Q 959 1441 959 1056 
Q 959 750 1161 570 
Q 1363 391 1709 391 
Q 2188 391 2477 730 
Q 2766 1069 2766 1631 
L 2766 1759 
L 2194 1759 
z
M 3341 1997 
L 3341 0 
L 2766 0 
L 2766 531 
Q 2569 213 2275 61 
Q 1981 -91 1556 -91 
Q 1019 -91 701 211 
Q 384 513 384 1019 
Q 384 1609 779 1909 
Q 1175 2209 1959 2209 
L 2766 2209 
L 2766 2266 
Q 2766 2663 2505 2880 
Q 2244 3097 1772 3097 
Q 1472 3097 1187 3025 
Q 903 2953 641 2809 
L 641 3341 
Q 956 3463 1253 3523 
Q 1550 3584 1831 3584 
Q 2591 3584 2966 3190 
Q 3341 2797 3341 1997 
z
" transform="scale(0.015625)"/>
        <path id="DejaVuSans-6d" d="M 3328 2828 
Q 3544 3216 3844 3400 
Q 4144 3584 4550 3584 
Q 5097 3584 5394 3201 
Q 5691 2819 5691 2113 
L 5691 0 
L 5113 0 
L 5113 2094 
Q 5113 2597 4934 2840 
Q 4756 3084 4391 3084 
Q 3944 3084 3684 2787 
Q 3425 2491 3425 1978 
L 3425 0 
L 2847 0 
L 2847 2094 
Q 2847 2600 2669 2842 
Q 2491 3084 2119 3084 
Q 1678 3084 1418 2786 
Q 1159 2488 1159 1978 
L 1159 0 
L 581 0 
L 581 3500 
L 1159 3500 
L 1159 2956 
Q 1356 3278 1631 3431 
Q 1906 3584 2284 3584 
Q 2666 3584 2933 3390 
Q 3200 3197 3328 2828 
z
" transform="scale(0.015625)"/>
       </defs>
       <use xlink:href="#DejaVuSans-38"/>
       <use xlink:href="#DejaVuSans-61" transform="translate(63.623047 0)"/>
       <use xlink:href="#DejaVuSans-6d" transform="translate(124.902344 0)"/>
      </g>
     </g>
    </g>
    <g id="xtick_2">
     <g id="line2d_3">
      <path d="M 76.827292 455.9395 
L 76.827292 35.7555 
" clip-path="url(#pe1f3085670)" style="fill: none; stroke-dasharray: 2.59,1.12; stroke-dashoffset: 0; stroke: #b0b0b0; stroke-opacity: 0.33; stroke-width: 0.7"/>
     </g>
     <g id="line2d_4">
      <g>
       <use xlink:href="#m7fbc46ebe9" x="76.827292" y="455.9395" style="stroke: #000000; stroke-width: 0.8"/>
      </g>
     </g>
     <g id="text_2">
      <!-- 9am -->
      <g transform="translate(65.711667 470.537938) scale(0.1 -0.1)">
       <defs>
        <path id="DejaVuSans-39" d="M 703 97 
L 703 672 
Q 941 559 1184 500 
Q 1428 441 1663 441 
Q 2288 441 2617 861 
Q 2947 1281 2994 2138 
Q 2813 1869 2534 1725 
Q 2256 1581 1919 1581 
Q 1219 1581 811 2004 
Q 403 2428 403 3163 
Q 403 3881 828 4315 
Q 1253 4750 1959 4750 
Q 2769 4750 3195 4129 
Q 3622 3509 3622 2328 
Q 3622 1225 3098 567 
Q 2575 -91 1691 -91 
Q 1453 -91 1209 -44 
Q 966 3 703 97 
z
M 1959 2075 
Q 2384 2075 2632 2365 
Q 2881 2656 2881 3163 
Q 2881 3666 2632 3958 
Q 2384 4250 1959 4250 
Q 1534 4250 1286 3958 
Q 1038 3666 1038 3163 
Q 1038 2656 1286 2365 
Q 1534 2075 1959 2075 
z
" transform="scale(0.015625)"/>
       </defs>
       <use xlink:href="#DejaVuSans-39"/>
       <use xlink:href="#DejaVuSans-61" transform="translate(63.623047 0)"/>
       <use xlink:href="#DejaVuSans-6d" transform="translate(124.902344 0)"/>
      </g>
     </g>
    </g>
    <g id="xtick_3">
     <g id="line2d_5">
      <path d="M 113.051458 455.9395 
L 113.051458 35.7555 
" clip-path="url(#pe1f3085670)" style="fill: none; stroke-dasharray: 2.59,1.12; stroke-dashoffset: 0; stroke: #b0b0b0; stroke-opacity: 0.33; stroke-width: 0.7"/>
     </g>
     <g id="line2d_6">
      <g>
       <use xlink:href="#m7fbc46ebe9" x="113.051458" y="455.9395" style="stroke: #000000; stroke-width: 0.8"/>
      </g>
     </g>
     <g id="text_3">
      <!-- 10am -->
      <g transform="translate(98.754583 470.537938) scale(0.1 -0.1)">
       <defs>
        <path id="DejaVuSans-31" d="M 794 531 
L 1825 531 
L 1825 4091 
L 703 3866 
L 703 4441 
L 1819 4666 
L 2450 4666 
L 2450 531 
L 3481 531 
L 3481 0 
L 794 0 
L 794 531 
z
" transform="scale(0.015625)"/>
        <path id="DejaVuSans-30" d="M 2034 4250 
Q 1547 4250 1301 3770 
Q 1056 3291 1056 2328 
Q 1056 1369 1301 889 
Q 1547 409 2034 409 
Q 2525 409 2770 889 
Q 3016 1369 3016 2328 
Q 3016 3291 2770 3770 
Q 2525 4250 2034 4250 
z
M 2034 4750 
Q 2819 4750 3233 4129 
Q 3647 3509 3647 2328 
Q 3647 1150 3233 529 
Q 2819 -91 2034 -91 
Q 1250 -91 836 529 
Q 422 1150 422 2328 
Q 422 3509 836 4129 
Q 1250 4750 2034 4750 
z
" transform="scale(0.015625)"/>
       </defs>
       <use xlink:href="#DejaVuSans-31"/>
       <use xlink:href="#DejaVuSans-30" transform="translate(63.623047 0)"/>
       <use xlink:href="#DejaVuSans-61" transform="translate(127.246094 0)"/>
       <use xlink:href="#DejaVuSans-6d" transform="translate(188.525391 0)"/>
      </g>
     </g>
    </g>
    <g id="xtick_4">
     <g id="line2d_7">
      <path d="M 149.275625 455.9395 
L 149.275625 35.7555 
" clip-path="url(#pe1f3085670)" style="fill: none; stroke-dasharray: 2.59,1.12; stroke-dashoffset: 0; stroke: #b0b0b0; stroke-opacity: 0.33; stroke-width: 0.7"/>
     </g>
     <g id="line2d_8">
      <g>
       <use xlink:href="#m7fbc46ebe9" x="149.275625" y="455.9395" style="stroke: #000000; stroke-width: 0.8"/>
      </g>
     </g>
     <g id="text_4">
      <!-- 11am -->
      <g transform="translate(134.97875 470.537938) scale(0.1 -0.1)">
       <use xlink:href="#DejaVuSans-31"/>
       <use xlink:href="#DejaVuSans-31" transform="translate(63.623047 0)"/>
       <use xlink:href="#DejaVuSans-61" transform="translate(127.246094 0)"/>
       <use xlink:href="#DejaVuSans-6d" transform="translate(188.525391 0)"/>
      </g>
     </g>
    </g>
    <g id="xtick_5">
     <g id="line2d_9">
      <path d="M 185.499792 455.9395 
L 185.499792 35.7555 
" clip-path="url(#pe1f3085670)" style="fill: none; stroke-dasharray: 2.59,1.12; stroke-dashoffset: 0; stroke: #b0b0b0; stroke-opacity: 0.33; stroke-width: 0.7"/>
     </g>
     <g id="line2d_10">
      <g>
       <use xlink:href="#m7fbc46ebe9" x="185.499792" y="455.9395" style="stroke: #000000; stroke-width: 0.8"/>
      </g>
     </g>
     <g id="text_5">
      <!-- 12pm -->
      <g transform="translate(171.09276 470.537938) scale(0.1 -0.1)">
       <defs>
        <path id="DejaVuSans-32" d="M 1228 531 
L 3431 531 
L 3431 0 
L 469 0 
L 469 531 
Q 828 903 1448 1529 
Q 2069 2156 2228 2338 
Q 2531 2678 2651 2914 
Q 2772 3150 2772 3378 
Q 2772 3750 2511 3984 
Q 2250 4219 1831 4219 
Q 1534 4219 1204 4116 
Q 875 4013 500 3803 
L 500 4441 
Q 881 4594 1212 4672 
Q 1544 4750 1819 4750 
Q 2544 4750 2975 4387 
Q 3406 4025 3406 3419 
Q 3406 3131 3298 2873 
Q 3191 2616 2906 2266 
Q 2828 2175 2409 1742 
Q 1991 1309 1228 531 
z
" transform="scale(0.015625)"/>
        <path id="DejaVuSans-70" d="M 1159 525 
L 1159 -1331 
L 581 -1331 
L 581 3500 
L 1159 3500 
L 1159 2969 
Q 1341 3281 1617 3432 
Q 1894 3584 2278 3584 
Q 2916 3584 3314 3078 
Q 3713 2572 3713 1747 
Q 3713 922 3314 415 
Q 2916 -91 2278 -91 
Q 1894 -91 1617 61 
Q 1341 213 1159 525 
z
M 3116 1747 
Q 3116 2381 2855 2742 
Q 2594 3103 2138 3103 
Q 1681 3103 1420 2742 
Q 1159 2381 1159 1747 
Q 1159 1113 1420 752 
Q 1681 391 2138 391 
Q 2594 391 2855 752 
Q 3116 1113 3116 1747 
z
" transform="scale(0.015625)"/>
       </defs>
       <use xlink:href="#DejaVuSans-31"/>
       <use xlink:href="#DejaVuSans-32" transform="translate(63.623047 0)"/>
       <use xlink:href="#DejaVuSans-70" transform="translate(127.246094 0)"/>
       <use xlink:href="#DejaVuSans-6d" transform="translate(190.722656 0)"/>
      </g>
     </g>
    </g>
    <g id="xtick_6">
     <g id="line2d_11">
      <path d="M 221.723958 455.9395 
L 221.723958 35.7555 
" clip-path="url(#pe1f3085670)" style="fill: none; stroke-dasharray: 2.59,1.12; stroke-dashoffset: 0; stroke: #b0b0b0; stroke-opacity: 0.33; stroke-width: 0.7"/>
     </g>
     <g id="line2d_12">
      <g>
       <use xlink:href="#m7fbc46ebe9" x="221.723958" y="455.9395" style="stroke: #000000; stroke-width: 0.8"/>
      </g>
     </g>
     <g id="text_6">
      <!-- 1pm -->
      <g transform="translate(210.498177 470.537938) scale(0.1 -0.1)">
       <use xlink:href="#DejaVuSans-31"/>
       <use xlink:href="#DejaVuSans-70" transform="translate(63.623047 0)"/>
       <use xlink:href="#DejaVuSans-6d" transform="translate(127.099609 0)"/>
      </g>
     </g>
    </g>
    <g id="xtick_7">
     <g id="line2d_13">
      <path d="M 257.948125 455.9395 
L 257.948125 35.7555 
" clip-path="url(#pe1f3085670)" style="fill: none; stroke-dasharray: 2.59,1.12; stroke-dashoffset: 0; stroke: #b0b0b0; stroke-opacity: 0.33; stroke-width: 0.7"/>
     </g>
     <g id="line2d_14">
      <g>
       <use xlink:href="#m7fbc46ebe9" x="257.948125" y="455.9395" style="stroke: #000000; stroke-width: 0.8"/>
      </g>
     </g>
     <g id="text_7">
      <!-- 2pm -->
      <g transform="translate(246.722344 470.537938) scale(0.1 -0.1)">
       <use xlink:href="#DejaVuSans-32"/>
       <use xlink:href="#DejaVuSans-70" transform="translate(63.623047 0)"/>
       <use xlink:href="#DejaVuSans-6d" transform="translate(127.099609 0)"/>
      </g>
     </g>
    </g>
    <g id="xtick_8">
     <g id="line2d_15">
      <path d="M 294.172292 455.9395 
L 294.172292 35.7555 
" clip-path="url(#pe1f3085670)" style="fill: none; stroke-dasharray: 2.59,1.12; stroke-dashoffset: 0; stroke: #b0b0b0; stroke-opacity: 0.33; stroke-width: 0.7"/>
     </g>
     <g id="line2d_16">
      <g>
       <use xlink:href="#m7fbc46ebe9" x="294.172292" y="455.9395" style="stroke: #000000; stroke-width: 0.8"/>
      </g>
     </g>
     <g id="text_8">
      <!-- 3pm -->
      <g transform="translate(282.94651 470.537938) scale(0.1 -0.1)">
       <defs>
        <path id="DejaVuSans-33" d="M 2597 2516 
Q 3050 2419 3304 2112 
Q 3559 1806 3559 1356 
Q 3559 666 3084 287 
Q 2609 -91 1734 -91 
Q 1441 -91 1130 -33 
Q 819 25 488 141 
L 488 750 
Q 750 597 1062 519 
Q 1375 441 1716 441 
Q 2309 441 2620 675 
Q 2931 909 2931 1356 
Q 2931 1769 2642 2001 
Q 2353 2234 1838 2234 
L 1294 2234 
L 1294 2753 
L 1863 2753 
Q 2328 2753 2575 2939 
Q 2822 3125 2822 3475 
Q 2822 3834 2567 4026 
Q 2313 4219 1838 4219 
Q 1578 4219 1281 4162 
Q 984 4106 628 3988 
L 628 4550 
Q 988 4650 1302 4700 
Q 1616 4750 1894 4750 
Q 2613 4750 3031 4423 
Q 3450 4097 3450 3541 
Q 3450 3153 3228 2886 
Q 3006 2619 2597 2516 
z
" transform="scale(0.015625)"/>
       </defs>
       <use xlink:href="#DejaVuSans-33"/>
       <use xlink:href="#DejaVuSans-70" transform="translate(63.623047 0)"/>
       <use xlink:href="#DejaVuSans-6d" transform="translate(127.099609 0)"/>
      </g>
     </g>
    </g>
    <g id="xtick_9">
     <g id="line2d_17">
      <path d="M 330.396458 455.9395 
L 330.396458 35.7555 
" clip-path="url(#pe1f3085670)" style="fill: none; stroke-dasharray: 2.59,1.12; stroke-dashoffset: 0; stroke: #b0b0b0; stroke-opacity: 0.33; stroke-width: 0.7"/>
     </g>
     <g id="line2d_18">
      <g>
       <use xlink:href="#m7fbc46ebe9" x="330.396458" y="455.9395" style="stroke: #000000; stroke-width: 0.8"/>
      </g>
     </g>
     <g id="text_9">
      <!-- 4pm -->
      <g transform="translate(319.170677 470.537938) scale(0.1 -0.1)">
       <defs>
        <path id="DejaVuSans-34" d="M 2419 4116 
L 825 1625 
L 2419 1625 
L 2419 4116 
z
M 2253 4666 
L 3047 4666 
L 3047 1625 
L 3713 1625 
L 3713 1100 
L 3047 1100 
L 3047 0 
L 2419 0 
L 2419 1100 
L 313 1100 
L 313 1709 
L 2253 4666 
z
" transform="scale(0.015625)"/>
       </defs>
       <use xlink:href="#DejaVuSans-34"/>
       <use xlink:href="#DejaVuSans-70" transform="translate(63.623047 0)"/>
       <use xlink:href="#DejaVuSans-6d" transform="translate(127.099609 0)"/>
      </g>
     </g>
    </g>
    <g id="xtick_10">
     <g id="line2d_19">
      <path d="M 366.620625 455.9395 
L 366.620625 35.7555 
" clip-path="url(#pe1f3085670)" style="fill: none; stroke-dasharray: 2.59,1.12; stroke-dashoffset: 0; stroke: #b0b0b0; stroke-opacity: 0.33; stroke-width: 0.7"/>
     </g>
     <g id="line2d_20">
      <g>
       <use xlink:href="#m7fbc46ebe9" x="366.620625" y="455.9395" style="stroke: #000000; stroke-width: 0.8"/>
      </g>
     </g>
     <g id="text_10">
      <!-- 5pm -->
      <g transform="translate(355.394844 470.537938) scale(0.1 -0.1)">
       <defs>
        <path id="DejaVuSans-35" d="M 691 4666 
L 3169 4666 
L 3169 4134 
L 1269 4134 
L 1269 2991 
Q 1406 3038 1543 3061 
Q 1681 3084 1819 3084 
Q 2600 3084 3056 2656 
Q 3513 2228 3513 1497 
Q 3513 744 3044 326 
Q 2575 -91 1722 -91 
Q 1428 -91 1123 -41 
Q 819 9 494 109 
L 494 744 
Q 775 591 1075 516 
Q 1375 441 1709 441 
Q 2250 441 2565 725 
Q 2881 1009 2881 1497 
Q 2881 1984 2565 2268 
Q 2250 2553 1709 2553 
Q 1456 2553 1204 2497 
Q 953 2441 691 2322 
L 691 4666 
z
" transform="scale(0.015625)"/>
       </defs>
       <use xlink:href="#DejaVuSans-35"/>
       <use xlink:href="#DejaVuSans-70" transform="translate(63.623047 0)"/>
       <use xlink:href="#DejaVuSans-6d" transform="translate(127.099609 0)"/>
      </g>
     </g>
    </g>
    <g id="xtick_11">
     <g id="line2d_21">
      <path d="M 402.844792 455.9395 
L 402.844792 35.7555 
" clip-path="url(#pe1f3085670)" style="fill: none; stroke-dasharray: 2.59,1.12; stroke-dashoffset: 0; stroke: #b0b0b0; stroke-opacity: 0.33; stroke-width: 0.7"/>
     </g>
     <g id="line2d_22">
      <g>
       <use xlink:href="#m7fbc46ebe9" x="402.844792" y="455.9395" style="stroke: #000000; stroke-width: 0.8"/>
      </g>
     </g>
     <g id="text_11">
      <!-- 6pm -->
      <g transform="translate(391.61901 470.537938) scale(0.1 -0.1)">
       <defs>
        <path id="DejaVuSans-36" d="M 2113 2584 
Q 1688 2584 1439 2293 
Q 1191 2003 1191 1497 
Q 1191 994 1439 701 
Q 1688 409 2113 409 
Q 2538 409 2786 701 
Q 3034 994 3034 1497 
Q 3034 2003 2786 2293 
Q 2538 2584 2113 2584 
z
M 3366 4563 
L 3366 3988 
Q 3128 4100 2886 4159 
Q 2644 4219 2406 4219 
Q 1781 4219 1451 3797 
Q 1122 3375 1075 2522 
Q 1259 2794 1537 2939 
Q 1816 3084 2150 3084 
Q 2853 3084 3261 2657 
Q 3669 2231 3669 1497 
Q 3669 778 3244 343 
Q 2819 -91 2113 -91 
Q 1303 -91 875 529 
Q 447 1150 447 2328 
Q 447 3434 972 4092 
Q 1497 4750 2381 4750 
Q 2619 4750 2861 4703 
Q 3103 4656 3366 4563 
z
" transform="scale(0.015625)"/>
       </defs>
       <use xlink:href="#DejaVuSans-36"/>
       <use xlink:href="#DejaVuSans-70" transform="translate(63.623047 0)"/>
       <use xlink:href="#DejaVuSans-6d" transform="translate(127.099609 0)"/>
      </g>
     </g>
    </g>
    <g id="xtick_12">
     <g id="line2d_23">
      <path d="M 439.068958 455.9395 
L 439.068958 35.7555 
" clip-path="url(#pe1f3085670)" style="fill: none; stroke-dasharray: 2.59,1.12; stroke-dashoffset: 0; stroke: #b0b0b0; stroke-opacity: 0.33; stroke-width: 0.7"/>
     </g>
     <g id="line2d_24">
      <g>
       <use xlink:href="#m7fbc46ebe9" x="439.068958" y="455.9395" style="stroke: #000000; stroke-width: 0.8"/>
      </g>
     </g>
     <g id="text_12">
      <!-- 7pm -->
      <g transform="translate(427.843177 470.537938) scale(0.1 -0.1)">
       <defs>
        <path id="DejaVuSans-37" d="M 525 4666 
L 3525 4666 
L 3525 4397 
L 1831 0 
L 1172 0 
L 2766 4134 
L 525 4134 
L 525 4666 
z
" transform="scale(0.015625)"/>
       </defs>
       <use xlink:href="#DejaVuSans-37"/>
       <use xlink:href="#DejaVuSans-70" transform="translate(63.623047 0)"/>
       <use xlink:href="#DejaVuSans-6d" transform="translate(127.099609 0)"/>
      </g>
     </g>
    </g>
    <g id="xtick_13">
     <g id="line2d_25">
      <path d="M 475.293125 455.9395 
L 475.293125 35.7555 
" clip-path="url(#pe1f3085670)" style="fill: none; stroke-dasharray: 2.59,1.12; stroke-dashoffset: 0; stroke: #b0b0b0; stroke-opacity: 0.33; stroke-width: 0.7"/>
     </g>
     <g id="line2d_26">
      <g>
       <use xlink:href="#m7fbc46ebe9" x="475.293125" y="455.9395" style="stroke: #000000; stroke-width: 0.8"/>
      </g>
     </g>
     <g id="text_13">
      <!-- 8pm -->
      <g transform="translate(464.067344 470.537938) scale(0.1 -0.1)">
       <use xlink:href="#DejaVuSans-38"/>
       <use xlink:href="#DejaVuSans-70" transform="translate(63.623047 0)"/>
       <use xlink:href="#DejaVuSans-6d" transform="translate(127.099609 0)"/>
      </g>
     </g>
    </g>
    <g id="xtick_14">
     <g id="line2d_27">
      <path d="M 511.517292 455.9395 
L 511.517292 35.7555 
" clip-path="url(#pe1f3085670)" style="fill: none; stroke-dasharray: 2.59,1.12; stroke-dashoffset: 0; stroke: #b0b0b0; stroke-opacity: 0.33; stroke-width: 0.7"/>
     </g>
     <g id="line2d_28">
      <g>
       <use xlink:href="#m7fbc46ebe9" x="511.517292" y="455.9395" style="stroke: #000000; stroke-width: 0.8"/>
      </g>
     </g>
     <g id="text_14">
      <!-- 9pm -->
      <g transform="translate(500.29151 470.537938) scale(0.1 -0.1)">
       <use xlink:href="#DejaVuSans-39"/>
       <use xlink:href="#DejaVuSans-70" transform="translate(63.623047 0)"/>
       <use xlink:href="#DejaVuSans-6d" transform="translate(127.099609 0)"/>
      </g>
     </g>
    </g>
    <g id="xtick_15">
     <g id="line2d_29">
      <path d="M 547.741458 455.9395 
L 547.741458 35.7555 
" clip-path="url(#pe1f3085670)" style="fill: none; stroke-dasharray: 2.59,1.12; stroke-dashoffset: 0; stroke: #b0b0b0; stroke-opacity: 0.33; stroke-width: 0.7"/>
     </g>
     <g id="line2d_30">
      <g>
       <use xlink:href="#m7fbc46ebe9" x="547.741458" y="455.9395" style="stroke: #000000; stroke-width: 0.8"/>
      </g>
     </g>
     <g id="text_15">
      <!-- 10pm -->
      <g transform="translate(533.334427 470.537938) scale(0.1 -0.1)">
       <use xlink:href="#DejaVuSans-31"/>
       <use xlink:href="#DejaVuSans-30" transform="translate(63.623047 0)"/>
       <use xlink:href="#DejaVuSans-70" transform="translate(127.246094 0)"/>
       <use xlink:href="#DejaVuSans-6d" transform="translate(190.722656 0)"/>
      </g>
     </g>
    </g>
    <g id="xtick_16">
     <g id="line2d_31">
      <path d="M 583.965625 455.9395 
L 583.965625 35.7555 
" clip-path="url(#pe1f3085670)" style="fill: none; stroke-dasharray: 2.59,1.12; stroke-dashoffset: 0; stroke: #b0b0b0; stroke-opacity: 0.33; stroke-width: 0.7"/>
     </g>
     <g id="line2d_32">
      <g>
       <use xlink:href="#m7fbc46ebe9" x="583.965625" y="455.9395" style="stroke: #000000; stroke-width: 0.8"/>
      </g>
     </g>
     <g id="text_16">
      <!-- 11pm -->
      <g transform="translate(569.558594 470.537938) scale(0.1 -0.1)">
       <use xlink:href="#DejaVuSans-31"/>
       <use xlink:href="#DejaVuSans-31" transform="translate(63.623047 0)"/>
       <use xlink:href="#DejaVuSans-70" transform="translate(127.246094 0)"/>
       <use xlink:href="#DejaVuSans-6d" transform="translate(190.722656 0)"/>
      </g>
     </g>
    </g>
    <g id="xtick_17">
     <g id="line2d_33">
      <path d="M 620.189792 455.9395 
L 620.189792 35.7555 
" clip-path="url(#pe1f3085670)" style="fill: none; stroke-dasharray: 2.59,1.12; stroke-dashoffset: 0; stroke: #b0b0b0; stroke-opacity: 0.33; stroke-width: 0.7"/>
     </g>
     <g id="line2d_34">
      <g>
       <use xlink:href="#m7fbc46ebe9" x="620.189792" y="455.9395" style="stroke: #000000; stroke-width: 0.8"/>
      </g>
     </g>
     <g id="text_17">
      <!-- 12am -->
      <g transform="translate(605.892917 470.537938) scale(0.1 -0.1)">
       <use xlink:href="#DejaVuSans-31"/>
       <use xlink:href="#DejaVuSans-32" transform="translate(63.623047 0)"/>
       <use xlink:href="#DejaVuSans-61" transform="translate(127.246094 0)"/>
       <use xlink:href="#DejaVuSans-6d" transform="translate(188.525391 0)"/>
      </g>
     </g>
    </g>
    <g id="xtick_18">
     <g id="line2d_35">
      <path d="M 656.413958 455.9395 
L 656.413958 35.7555 
" clip-path="url(#pe1f3085670)" style="fill: none; stroke-dasharray: 2.59,1.12; stroke-dashoffset: 0; stroke: #b0b0b0; stroke-opacity: 0.33; stroke-width: 0.7"/>
     </g>
     <g id="line2d_36">
      <g>
       <use xlink:href="#m7fbc46ebe9" x="656.413958" y="455.9395" style="stroke: #000000; stroke-width: 0.8"/>
      </g>
     </g>
     <g id="text_18">
      <!-- 1am -->
      <g transform="translate(645.298333 470.537938) scale(0.1 -0.1)">
       <use xlink:href="#DejaVuSans-31"/>
       <use xlink:href="#DejaVuSans-61" transform="translate(63.623047 0)"/>
       <use xlink:href="#DejaVuSans-6d" transform="translate(124.902344 0)"/>
      </g>
     </g>
    </g>
    <g id="xtick_19">
     <g id="line2d_37">
      <path d="M 692.638125 455.9395 
L 692.638125 35.7555 
" clip-path="url(#pe1f3085670)" style="fill: none; stroke-dasharray: 2.59,1.12; stroke-dashoffset: 0; stroke: #b0b0b0; stroke-opacity: 0.33; stroke-width: 0.7"/>
     </g>
     <g id="line2d_38">
      <g>
       <use xlink:href="#m7fbc46ebe9" x="692.638125" y="455.9395" style="stroke: #000000; stroke-width: 0.8"/>
      </g>
     </g>
     <g id="text_19">
      <!-- 2am -->
      <g transform="translate(681.5225 470.537938) scale(0.1 -0.1)">
       <use xlink:href="#DejaVuSans-32"/>
       <use xlink:href="#DejaVuSans-61" transform="translate(63.623047 0)"/>
       <use xlink:href="#DejaVuSans-6d" transform="translate(124.902344 0)"/>
      </g>
     </g>
    </g>
    <g id="xtick_20">
     <g id="line2d_39">
      <path d="M 728.862292 455.9395 
L 728.862292 35.7555 
" clip-path="url(#pe1f3085670)" style="fill: none; stroke-dasharray: 2.59,1.12; stroke-dashoffset: 0; stroke: #b0b0b0; stroke-opacity: 0.33; stroke-width: 0.7"/>
     </g>
     <g id="line2d_40">
      <g>
       <use xlink:href="#m7fbc46ebe9" x="728.862292" y="455.9395" style="stroke: #000000; stroke-width: 0.8"/>
      </g>
     </g>
     <g id="text_20">
      <!-- 3am -->
      <g transform="translate(717.746667 470.537938) scale(0.1 -0.1)">
       <use xlink:href="#DejaVuSans-33"/>
       <use xlink:href="#DejaVuSans-61" transform="translate(63.623047 0)"/>
       <use xlink:href="#DejaVuSans-6d" transform="translate(124.902344 0)"/>
      </g>
     </g>
    </g>
    <g id="xtick_21">
     <g id="line2d_41">
      <path d="M 765.086458 455.9395 
L 765.086458 35.7555 
" clip-path="url(#pe1f3085670)" style="fill: none; stroke-dasharray: 2.59,1.12; stroke-dashoffset: 0; stroke: #b0b0b0; stroke-opacity: 0.33; stroke-width: 0.7"/>
     </g>
     <g id="line2d_42">
      <g>
       <use xlink:href="#m7fbc46ebe9" x="765.086458" y="455.9395" style="stroke: #000000; stroke-width: 0.8"/>
      </g>
     </g>
     <g id="text_21">
      <!-- 4am -->
      <g transform="translate(753.970833 470.537938) scale(0.1 -0.1)">
       <use xlink:href="#DejaVuSans-34"/>
       <use xlink:href="#DejaVuSans-61" transform="translate(63.623047 0)"/>
       <use xlink:href="#DejaVuSans-6d" transform="translate(124.902344 0)"/>
      </g>
     </g>
    </g>
    <g id="xtick_22">
     <g id="line2d_43">
      <path d="M 801.310625 455.9395 
L 801.310625 35.7555 
" clip-path="url(#pe1f3085670)" style="fill: none; stroke-dasharray: 2.59,1.12; stroke-dashoffset: 0; stroke: #b0b0b0; stroke-opacity: 0.33; stroke-width: 0.7"/>
     </g>
     <g id="line2d_44">
      <g>
       <use xlink:href="#m7fbc46ebe9" x="801.310625" y="455.9395" style="stroke: #000000; stroke-width: 0.8"/>
      </g>
     </g>
     <g id="text_22">
      <!-- 5am -->
      <g transform="translate(790.195 470.537938) scale(0.1 -0.1)">
       <use xlink:href="#DejaVuSans-35"/>
       <use xlink:href="#DejaVuSans-61" transform="translate(63.623047 0)"/>
       <use xlink:href="#DejaVuSans-6d" transform="translate(124.902344 0)"/>
      </g>
     </g>
    </g>
    <g id="xtick_23">
     <g id="line2d_45">
      <path d="M 837.534792 455.9395 
L 837.534792 35.7555 
" clip-path="url(#pe1f3085670)" style="fill: none; stroke-dasharray: 2.59,1.12; stroke-dashoffset: 0; stroke: #b0b0b0; stroke-opacity: 0.33; stroke-width: 0.7"/>
     </g>
     <g id="line2d_46">
      <g>
       <use xlink:href="#m7fbc46ebe9" x="837.534792" y="455.9395" style="stroke: #000000; stroke-width: 0.8"/>
      </g>
     </g>
     <g id="text_23">
      <!-- 6am -->
      <g transform="translate(826.419167 470.537938) scale(0.1 -0.1)">
       <use xlink:href="#DejaVuSans-36"/>
       <use xlink:href="#DejaVuSans-61" transform="translate(63.623047 0)"/>
       <use xlink:href="#DejaVuSans-6d" transform="translate(124.902344 0)"/>
      </g>
     </g>
    </g>
    <g id="xtick_24">
     <g id="line2d_47">
      <path d="M 873.758958 455.9395 
L 873.758958 35.7555 
" clip-path="url(#pe1f3085670)" style="fill: none; stroke-dasharray: 2.59,1.12; stroke-dashoffset: 0; stroke: #b0b0b0; stroke-opacity: 0.33; stroke-width: 0.7"/>
     </g>
     <g id="line2d_48">
      <g>
       <use xlink:href="#m7fbc46ebe9" x="873.758958" y="455.9395" style="stroke: #000000; stroke-width: 0.8"/>
      </g>
     </g>
     <g id="text_24">
      <!-- 7am -->
      <g transform="translate(862.643333 470.537938) scale(0.1 -0.1)">
       <use xlink:href="#DejaVuSans-37"/>
       <use xlink:href="#DejaVuSans-61" transform="translate(63.623047 0)"/>
       <use xlink:href="#DejaVuSans-6d" transform="translate(124.902344 0)"/>
      </g>
     </g>
    </g>
    <g id="xtick_25">
     <g id="line2d_49">
      <path d="M 909.983125 455.9395 
L 909.983125 35.7555 
" clip-path="url(#pe1f3085670)" style="fill: none; stroke-dasharray: 2.59,1.12; stroke-dashoffset: 0; stroke: #b0b0b0; stroke-opacity: 0.33; stroke-width: 0.7"/>
     </g>
     <g id="line2d_50">
      <g>
       <use xlink:href="#m7fbc46ebe9" x="909.983125" y="455.9395" style="stroke: #000000; stroke-width: 0.8"/>
      </g>
     </g>
     <g id="text_25">
      <!-- 8am -->
      <g transform="translate(898.8675 470.537938) scale(0.1 -0.1)">
       <use xlink:href="#DejaVuSans-38"/>
       <use xlink:href="#DejaVuSans-61" transform="translate(63.623047 0)"/>
       <use xlink:href="#DejaVuSans-6d" transform="translate(124.902344 0)"/>
      </g>
     </g>
    </g>
    <g id="text_26">
     <!-- Hour of Day -->
     <g transform="translate(445.378281 484.216063) scale(0.1 -0.1)">
      <defs>
       <path id="DejaVuSans-48" d="M 628 4666 
L 1259 4666 
L 1259 2753 
L 3553 2753 
L 3553 4666 
L 4184 4666 
L 4184 0 
L 3553 0 
L 3553 2222 
L 1259 2222 
L 1259 0 
L 628 0 
L 628 4666 
z
" transform="scale(0.015625)"/>
       <path id="DejaVuSans-6f" d="M 1959 3097 
Q 1497 3097 1228 2736 
Q 959 2375 959 1747 
Q 959 1119 1226 758 
Q 1494 397 1959 397 
Q 2419 397 2687 759 
Q 2956 1122 2956 1747 
Q 2956 2369 2687 2733 
Q 2419 3097 1959 3097 
z
M 1959 3584 
Q 2709 3584 3137 3096 
Q 3566 2609 3566 1747 
Q 3566 888 3137 398 
Q 2709 -91 1959 -91 
Q 1206 -91 779 398 
Q 353 888 353 1747 
Q 353 2609 779 3096 
Q 1206 3584 1959 3584 
z
" transform="scale(0.015625)"/>
       <path id="DejaVuSans-75" d="M 544 1381 
L 544 3500 
L 1119 3500 
L 1119 1403 
Q 1119 906 1312 657 
Q 1506 409 1894 409 
Q 2359 409 2629 706 
Q 2900 1003 2900 1516 
L 2900 3500 
L 3475 3500 
L 3475 0 
L 2900 0 
L 2900 538 
Q 2691 219 2414 64 
Q 2138 -91 1772 -91 
Q 1169 -91 856 284 
Q 544 659 544 1381 
z
M 1991 3584 
L 1991 3584 
z
" transform="scale(0.015625)"/>
       <path id="DejaVuSans-72" d="M 2631 2963 
Q 2534 3019 2420 3045 
Q 2306 3072 2169 3072 
Q 1681 3072 1420 2755 
Q 1159 2438 1159 1844 
L 1159 0 
L 581 0 
L 581 3500 
L 1159 3500 
L 1159 2956 
Q 1341 3275 1631 3429 
Q 1922 3584 2338 3584 
Q 2397 3584 2469 3576 
Q 2541 3569 2628 3553 
L 2631 2963 
z
" transform="scale(0.015625)"/>
       <path id="DejaVuSans-20" transform="scale(0.015625)"/>
       <path id="DejaVuSans-66" d="M 2375 4863 
L 2375 4384 
L 1825 4384 
Q 1516 4384 1395 4259 
Q 1275 4134 1275 3809 
L 1275 3500 
L 2222 3500 
L 2222 3053 
L 1275 3053 
L 1275 0 
L 697 0 
L 697 3053 
L 147 3053 
L 147 3500 
L 697 3500 
L 697 3744 
Q 697 4328 969 4595 
Q 1241 4863 1831 4863 
L 2375 4863 
z
" transform="scale(0.015625)"/>
       <path id="DejaVuSans-44" d="M 1259 4147 
L 1259 519 
L 2022 519 
Q 2988 519 3436 956 
Q 3884 1394 3884 2338 
Q 3884 3275 3436 3711 
Q 2988 4147 2022 4147 
L 1259 4147 
z
M 628 4666 
L 1925 4666 
Q 3281 4666 3915 4102 
Q 4550 3538 4550 2338 
Q 4550 1131 3912 565 
Q 3275 0 1925 0 
L 628 0 
L 628 4666 
z
" transform="scale(0.015625)"/>
       <path id="DejaVuSans-79" d="M 2059 -325 
Q 1816 -950 1584 -1140 
Q 1353 -1331 966 -1331 
L 506 -1331 
L 506 -850 
L 844 -850 
Q 1081 -850 1212 -737 
Q 1344 -625 1503 -206 
L 1606 56 
L 191 3500 
L 800 3500 
L 1894 763 
L 2988 3500 
L 3597 3500 
L 2059 -325 
z
" transform="scale(0.015625)"/>
      </defs>
      <use xlink:href="#DejaVuSans-48"/>
      <use xlink:href="#DejaVuSans-6f" transform="translate(75.195312 0)"/>
      <use xlink:href="#DejaVuSans-75" transform="translate(136.376953 0)"/>
      <use xlink:href="#DejaVuSans-72" transform="translate(199.755859 0)"/>
      <use xlink:href="#DejaVuSans-20" transform="translate(240.869141 0)"/>
      <use xlink:href="#DejaVuSans-6f" transform="translate(272.65625 0)"/>
      <use xlink:href="#DejaVuSans-66" transform="translate(333.837891 0)"/>
      <use xlink:href="#DejaVuSans-20" transform="translate(369.042969 0)"/>
      <use xlink:href="#DejaVuSans-44" transform="translate(400.830078 0)"/>
      <use xlink:href="#DejaVuSans-61" transform="translate(477.832031 0)"/>
      <use xlink:href="#DejaVuSans-79" transform="translate(539.111328 0)"/>
     </g>
    </g>
   </g>
   <g id="matplotlib.axis_2">
    <g id="ytick_1">
     <g id="line2d_51">
      <path d="M 40.603125 455.9395 
L 909.983125 455.9395 
" clip-path="url(#pe1f3085670)" style="fill: none; stroke-dasharray: 2.59,1.12; stroke-dashoffset: 0; stroke: #b0b0b0; stroke-opacity: 0.33; stroke-width: 0.7"/>
     </g>
     <g id="line2d_52">
      <defs>
       <path id="m2e5c30fc5a" d="M 0 0 
L -3.5 0 
" style="stroke: #000000; stroke-width: 0.8"/>
      </defs>
      <g>
       <use xlink:href="#m2e5c30fc5a" x="40.603125" y="455.9395" style="stroke: #000000; stroke-width: 0.8"/>
      </g>
     </g>
     <g id="text_27">
      <!-- 0 -->
      <g transform="translate(27.240625 459.738719) scale(0.1 -0.1)">
       <use xlink:href="#DejaVuSans-30"/>
      </g>
     </g>
    </g>
    <g id="ytick_2">
     <g id="line2d_53">
      <path d="M 40.603125 409.252389 
L 909.983125 409.252389 
" clip-path="url(#pe1f3085670)" style="fill: none; stroke-dasharray: 2.59,1.12; stroke-dashoffset: 0; stroke: #b0b0b0; stroke-opacity: 0.33; stroke-width: 0.7"/>
     </g>
     <g id="line2d_54">
      <g>
       <use xlink:href="#m2e5c30fc5a" x="40.603125" y="409.252389" style="stroke: #000000; stroke-width: 0.8"/>
      </g>
     </g>
     <g id="text_28">
      <!-- 2 -->
      <g transform="translate(27.240625 413.051608) scale(0.1 -0.1)">
       <use xlink:href="#DejaVuSans-32"/>
      </g>
     </g>
    </g>
    <g id="ytick_3">
     <g id="line2d_55">
      <path d="M 40.603125 362.565278 
L 909.983125 362.565278 
" clip-path="url(#pe1f3085670)" style="fill: none; stroke-dasharray: 2.59,1.12; stroke-dashoffset: 0; stroke: #b0b0b0; stroke-opacity: 0.33; stroke-width: 0.7"/>
     </g>
     <g id="line2d_56">
      <g>
       <use xlink:href="#m2e5c30fc5a" x="40.603125" y="362.565278" style="stroke: #000000; stroke-width: 0.8"/>
      </g>
     </g>
     <g id="text_29">
      <!-- 4 -->
      <g transform="translate(27.240625 366.364497) scale(0.1 -0.1)">
       <use xlink:href="#DejaVuSans-34"/>
      </g>
     </g>
    </g>
    <g id="ytick_4">
     <g id="line2d_57">
      <path d="M 40.603125 315.878167 
L 909.983125 315.878167 
" clip-path="url(#pe1f3085670)" style="fill: none; stroke-dasharray: 2.59,1.12; stroke-dashoffset: 0; stroke: #b0b0b0; stroke-opacity: 0.33; stroke-width: 0.7"/>
     </g>
     <g id="line2d_58">
      <g>
       <use xlink:href="#m2e5c30fc5a" x="40.603125" y="315.878167" style="stroke: #000000; stroke-width: 0.8"/>
      </g>
     </g>
     <g id="text_30">
      <!-- 6 -->
      <g transform="translate(27.240625 319.677385) scale(0.1 -0.1)">
       <use xlink:href="#DejaVuSans-36"/>
      </g>
     </g>
    </g>
    <g id="ytick_5">
     <g id="line2d_59">
      <path d="M 40.603125 269.191056 
L 909.983125 269.191056 
" clip-path="url(#pe1f3085670)" style="fill: none; stroke-dasharray: 2.59,1.12; stroke-dashoffset: 0; stroke: #b0b0b0; stroke-opacity: 0.33; stroke-width: 0.7"/>
     </g>
     <g id="line2d_60">
      <g>
       <use xlink:href="#m2e5c30fc5a" x="40.603125" y="269.191056" style="stroke: #000000; stroke-width: 0.8"/>
      </g>
     </g>
     <g id="text_31">
      <!-- 8 -->
      <g transform="translate(27.240625 272.990274) scale(0.1 -0.1)">
       <use xlink:href="#DejaVuSans-38"/>
      </g>
     </g>
    </g>
    <g id="ytick_6">
     <g id="line2d_61">
      <path d="M 40.603125 222.503944 
L 909.983125 222.503944 
" clip-path="url(#pe1f3085670)" style="fill: none; stroke-dasharray: 2.59,1.12; stroke-dashoffset: 0; stroke: #b0b0b0; stroke-opacity: 0.33; stroke-width: 0.7"/>
     </g>
     <g id="line2d_62">
      <g>
       <use xlink:href="#m2e5c30fc5a" x="40.603125" y="222.503944" style="stroke: #000000; stroke-width: 0.8"/>
      </g>
     </g>
     <g id="text_32">
      <!-- 10 -->
      <g transform="translate(20.878125 226.303163) scale(0.1 -0.1)">
       <use xlink:href="#DejaVuSans-31"/>
       <use xlink:href="#DejaVuSans-30" transform="translate(63.623047 0)"/>
      </g>
     </g>
    </g>
    <g id="ytick_7">
     <g id="line2d_63">
      <path d="M 40.603125 175.816833 
L 909.983125 175.816833 
" clip-path="url(#pe1f3085670)" style="fill: none; stroke-dasharray: 2.59,1.12; stroke-dashoffset: 0; stroke: #b0b0b0; stroke-opacity: 0.33; stroke-width: 0.7"/>
     </g>
     <g id="line2d_64">
      <g>
       <use xlink:href="#m2e5c30fc5a" x="40.603125" y="175.816833" style="stroke: #000000; stroke-width: 0.8"/>
      </g>
     </g>
     <g id="text_33">
      <!-- 12 -->
      <g transform="translate(20.878125 179.616052) scale(0.1 -0.1)">
       <use xlink:href="#DejaVuSans-31"/>
       <use xlink:href="#DejaVuSans-32" transform="translate(63.623047 0)"/>
      </g>
     </g>
    </g>
    <g id="ytick_8">
     <g id="line2d_65">
      <path d="M 40.603125 129.129722 
L 909.983125 129.129722 
" clip-path="url(#pe1f3085670)" style="fill: none; stroke-dasharray: 2.59,1.12; stroke-dashoffset: 0; stroke: #b0b0b0; stroke-opacity: 0.33; stroke-width: 0.7"/>
     </g>
     <g id="line2d_66">
      <g>
       <use xlink:href="#m2e5c30fc5a" x="40.603125" y="129.129722" style="stroke: #000000; stroke-width: 0.8"/>
      </g>
     </g>
     <g id="text_34">
      <!-- 14 -->
      <g transform="translate(20.878125 132.928941) scale(0.1 -0.1)">
       <use xlink:href="#DejaVuSans-31"/>
       <use xlink:href="#DejaVuSans-34" transform="translate(63.623047 0)"/>
      </g>
     </g>
    </g>
    <g id="ytick_9">
     <g id="line2d_67">
      <path d="M 40.603125 82.442611 
L 909.983125 82.442611 
" clip-path="url(#pe1f3085670)" style="fill: none; stroke-dasharray: 2.59,1.12; stroke-dashoffset: 0; stroke: #b0b0b0; stroke-opacity: 0.33; stroke-width: 0.7"/>
     </g>
     <g id="line2d_68">
      <g>
       <use xlink:href="#m2e5c30fc5a" x="40.603125" y="82.442611" style="stroke: #000000; stroke-width: 0.8"/>
      </g>
     </g>
     <g id="text_35">
      <!-- 16 -->
      <g transform="translate(20.878125 86.24183) scale(0.1 -0.1)">
       <use xlink:href="#DejaVuSans-31"/>
       <use xlink:href="#DejaVuSans-36" transform="translate(63.623047 0)"/>
      </g>
     </g>
    </g>
    <g id="ytick_10">
     <g id="line2d_69">
      <path d="M 40.603125 35.7555 
L 909.983125 35.7555 
" clip-path="url(#pe1f3085670)" style="fill: none; stroke-dasharray: 2.59,1.12; stroke-dashoffset: 0; stroke: #b0b0b0; stroke-opacity: 0.33; stroke-width: 0.7"/>
     </g>
     <g id="line2d_70">
      <g>
       <use xlink:href="#m2e5c30fc5a" x="40.603125" y="35.7555" style="stroke: #000000; stroke-width: 0.8"/>
      </g>
     </g>
     <g id="text_36">
      <!-- 18 -->
      <g transform="translate(20.878125 39.554719) scale(0.1 -0.1)">
       <use xlink:href="#DejaVuSans-31"/>
       <use xlink:href="#DejaVuSans-38" transform="translate(63.623047 0)"/>
      </g>
     </g>
    </g>
    <g id="text_37">
     <!-- Relative Effect (arbitrary units) -->
     <g transform="translate(14.798438 323.214687) rotate(-90) scale(0.1 -0.1)">
      <defs>
       <path id="DejaVuSans-52" d="M 2841 2188 
Q 3044 2119 3236 1894 
Q 3428 1669 3622 1275 
L 4263 0 
L 3584 0 
L 2988 1197 
Q 2756 1666 2539 1819 
Q 2322 1972 1947 1972 
L 1259 1972 
L 1259 0 
L 628 0 
L 628 4666 
L 2053 4666 
Q 2853 4666 3247 4331 
Q 3641 3997 3641 3322 
Q 3641 2881 3436 2590 
Q 3231 2300 2841 2188 
z
M 1259 4147 
L 1259 2491 
L 2053 2491 
Q 2509 2491 2742 2702 
Q 2975 2913 2975 3322 
Q 2975 3731 2742 3939 
Q 2509 4147 2053 4147 
L 1259 4147 
z
" transform="scale(0.015625)"/>
       <path id="DejaVuSans-65" d="M 3597 1894 
L 3597 1613 
L 953 1613 
Q 991 1019 1311 708 
Q 1631 397 2203 397 
Q 2534 397 2845 478 
Q 3156 559 3463 722 
L 3463 178 
Q 3153 47 2828 -22 
Q 2503 -91 2169 -91 
Q 1331 -91 842 396 
Q 353 884 353 1716 
Q 353 2575 817 3079 
Q 1281 3584 2069 3584 
Q 2775 3584 3186 3129 
Q 3597 2675 3597 1894 
z
M 3022 2063 
Q 3016 2534 2758 2815 
Q 2500 3097 2075 3097 
Q 1594 3097 1305 2825 
Q 1016 2553 972 2059 
L 3022 2063 
z
" transform="scale(0.015625)"/>
       <path id="DejaVuSans-6c" d="M 603 4863 
L 1178 4863 
L 1178 0 
L 603 0 
L 603 4863 
z
" transform="scale(0.015625)"/>
       <path id="DejaVuSans-74" d="M 1172 4494 
L 1172 3500 
L 2356 3500 
L 2356 3053 
L 1172 3053 
L 1172 1153 
Q 1172 725 1289 603 
Q 1406 481 1766 481 
L 2356 481 
L 2356 0 
L 1766 0 
Q 1100 0 847 248 
Q 594 497 594 1153 
L 594 3053 
L 172 3053 
L 172 3500 
L 594 3500 
L 594 4494 
L 1172 4494 
z
" transform="scale(0.015625)"/>
       <path id="DejaVuSans-69" d="M 603 3500 
L 1178 3500 
L 1178 0 
L 603 0 
L 603 3500 
z
M 603 4863 
L 1178 4863 
L 1178 4134 
L 603 4134 
L 603 4863 
z
" transform="scale(0.015625)"/>
       <path id="DejaVuSans-76" d="M 191 3500 
L 800 3500 
L 1894 563 
L 2988 3500 
L 3597 3500 
L 2284 0 
L 1503 0 
L 191 3500 
z
" transform="scale(0.015625)"/>
       <path id="DejaVuSans-45" d="M 628 4666 
L 3578 4666 
L 3578 4134 
L 1259 4134 
L 1259 2753 
L 3481 2753 
L 3481 2222 
L 1259 2222 
L 1259 531 
L 3634 531 
L 3634 0 
L 628 0 
L 628 4666 
z
" transform="scale(0.015625)"/>
       <path id="DejaVuSans-63" d="M 3122 3366 
L 3122 2828 
Q 2878 2963 2633 3030 
Q 2388 3097 2138 3097 
Q 1578 3097 1268 2742 
Q 959 2388 959 1747 
Q 959 1106 1268 751 
Q 1578 397 2138 397 
Q 2388 397 2633 464 
Q 2878 531 3122 666 
L 3122 134 
Q 2881 22 2623 -34 
Q 2366 -91 2075 -91 
Q 1284 -91 818 406 
Q 353 903 353 1747 
Q 353 2603 823 3093 
Q 1294 3584 2113 3584 
Q 2378 3584 2631 3529 
Q 2884 3475 3122 3366 
z
" transform="scale(0.015625)"/>
       <path id="DejaVuSans-28" d="M 1984 4856 
Q 1566 4138 1362 3434 
Q 1159 2731 1159 2009 
Q 1159 1288 1364 580 
Q 1569 -128 1984 -844 
L 1484 -844 
Q 1016 -109 783 600 
Q 550 1309 550 2009 
Q 550 2706 781 3412 
Q 1013 4119 1484 4856 
L 1984 4856 
z
" transform="scale(0.015625)"/>
       <path id="DejaVuSans-62" d="M 3116 1747 
Q 3116 2381 2855 2742 
Q 2594 3103 2138 3103 
Q 1681 3103 1420 2742 
Q 1159 2381 1159 1747 
Q 1159 1113 1420 752 
Q 1681 391 2138 391 
Q 2594 391 2855 752 
Q 3116 1113 3116 1747 
z
M 1159 2969 
Q 1341 3281 1617 3432 
Q 1894 3584 2278 3584 
Q 2916 3584 3314 3078 
Q 3713 2572 3713 1747 
Q 3713 922 3314 415 
Q 2916 -91 2278 -91 
Q 1894 -91 1617 61 
Q 1341 213 1159 525 
L 1159 0 
L 581 0 
L 581 4863 
L 1159 4863 
L 1159 2969 
z
" transform="scale(0.015625)"/>
       <path id="DejaVuSans-6e" d="M 3513 2113 
L 3513 0 
L 2938 0 
L 2938 2094 
Q 2938 2591 2744 2837 
Q 2550 3084 2163 3084 
Q 1697 3084 1428 2787 
Q 1159 2491 1159 1978 
L 1159 0 
L 581 0 
L 581 3500 
L 1159 3500 
L 1159 2956 
Q 1366 3272 1645 3428 
Q 1925 3584 2291 3584 
Q 2894 3584 3203 3211 
Q 3513 2838 3513 2113 
z
" transform="scale(0.015625)"/>
       <path id="DejaVuSans-73" d="M 2834 3397 
L 2834 2853 
Q 2591 2978 2328 3040 
Q 2066 3103 1784 3103 
Q 1356 3103 1142 2972 
Q 928 2841 928 2578 
Q 928 2378 1081 2264 
Q 1234 2150 1697 2047 
L 1894 2003 
Q 2506 1872 2764 1633 
Q 3022 1394 3022 966 
Q 3022 478 2636 193 
Q 2250 -91 1575 -91 
Q 1294 -91 989 -36 
Q 684 19 347 128 
L 347 722 
Q 666 556 975 473 
Q 1284 391 1588 391 
Q 1994 391 2212 530 
Q 2431 669 2431 922 
Q 2431 1156 2273 1281 
Q 2116 1406 1581 1522 
L 1381 1569 
Q 847 1681 609 1914 
Q 372 2147 372 2553 
Q 372 3047 722 3315 
Q 1072 3584 1716 3584 
Q 2034 3584 2315 3537 
Q 2597 3491 2834 3397 
z
" transform="scale(0.015625)"/>
       <path id="DejaVuSans-29" d="M 513 4856 
L 1013 4856 
Q 1481 4119 1714 3412 
Q 1947 2706 1947 2009 
Q 1947 1309 1714 600 
Q 1481 -109 1013 -844 
L 513 -844 
Q 928 -128 1133 580 
Q 1338 1288 1338 2009 
Q 1338 2731 1133 3434 
Q 928 4138 513 4856 
z
" transform="scale(0.015625)"/>
      </defs>
      <use xlink:href="#DejaVuSans-52"/>
      <use xlink:href="#DejaVuSans-65" transform="translate(64.982422 0)"/>
      <use xlink:href="#DejaVuSans-6c" transform="translate(126.505859 0)"/>
      <use xlink:href="#DejaVuSans-61" transform="translate(154.289062 0)"/>
      <use xlink:href="#DejaVuSans-74" transform="translate(215.568359 0)"/>
      <use xlink:href="#DejaVuSans-69" transform="translate(254.777344 0)"/>
      <use xlink:href="#DejaVuSans-76" transform="translate(282.560547 0)"/>
      <use xlink:href="#DejaVuSans-65" transform="translate(341.740234 0)"/>
      <use xlink:href="#DejaVuSans-20" transform="translate(403.263672 0)"/>
      <use xlink:href="#DejaVuSans-45" transform="translate(435.050781 0)"/>
      <use xlink:href="#DejaVuSans-66" transform="translate(498.234375 0)"/>
      <use xlink:href="#DejaVuSans-66" transform="translate(533.439453 0)"/>
      <use xlink:href="#DejaVuSans-65" transform="translate(568.644531 0)"/>
      <use xlink:href="#DejaVuSans-63" transform="translate(630.167969 0)"/>
      <use xlink:href="#DejaVuSans-74" transform="translate(685.148438 0)"/>
      <use xlink:href="#DejaVuSans-20" transform="translate(724.357422 0)"/>
      <use xlink:href="#DejaVuSans-28" transform="translate(756.144531 0)"/>
      <use xlink:href="#DejaVuSans-61" transform="translate(795.158203 0)"/>
      <use xlink:href="#DejaVuSans-72" transform="translate(856.4375 0)"/>
      <use xlink:href="#DejaVuSans-62" transform="translate(897.550781 0)"/>
      <use xlink:href="#DejaVuSans-69" transform="translate(961.027344 0)"/>
      <use xlink:href="#DejaVuSans-74" transform="translate(988.810547 0)"/>
      <use xlink:href="#DejaVuSans-72" transform="translate(1028.019531 0)"/>
      <use xlink:href="#DejaVuSans-61" transform="translate(1069.132812 0)"/>
      <use xlink:href="#DejaVuSans-72" transform="translate(1130.412109 0)"/>
      <use xlink:href="#DejaVuSans-79" transform="translate(1171.525391 0)"/>
      <use xlink:href="#DejaVuSans-20" transform="translate(1230.705078 0)"/>
      <use xlink:href="#DejaVuSans-75" transform="translate(1262.492188 0)"/>
      <use xlink:href="#DejaVuSans-6e" transform="translate(1325.871094 0)"/>
      <use xlink:href="#DejaVuSans-69" transform="translate(1389.25 0)"/>
      <use xlink:href="#DejaVuSans-74" transform="translate(1417.033203 0)"/>
      <use xlink:href="#DejaVuSans-73" transform="translate(1456.242188 0)"/>
      <use xlink:href="#DejaVuSans-29" transform="translate(1508.341797 0)"/>
     </g>
    </g>
   </g>
   <g id="line2d_71">
    <path d="M 40.603125 455.9395 
L 43.018069 431.110946 
L 45.433014 408.191013 
L 47.847958 387.03669 
L 50.262903 367.51618 
L 52.677847 349.507978 
L 55.092792 332.900037 
L 57.507736 317.588993 
L 59.922681 303.479461 
L 62.337625 290.483395 
L 64.752569 278.519488 
L 67.167514 267.512637 
L 69.582458 257.393443 
L 71.997403 248.097756 
L 74.412347 239.56626 
L 76.827292 231.744084 
L 79.242236 224.580456 
L 81.657181 218.028381 
L 84.072125 212.044338 
L 86.487069 206.588017 
L 88.902014 201.622065 
L 91.316958 197.111857 
L 93.731903 193.025285 
L 96.146847 189.332566 
L 98.561792 186.006066 
L 100.976736 183.02013 
L 103.391681 180.350937 
L 105.806625 177.97636 
L 108.221569 175.87584 
L 110.636514 174.030265 
L 113.051458 172.421866 
L 115.466403 171.034114 
L 118.485083 169.586385 
L 121.503764 168.431751 
L 124.522444 167.544864 
L 127.541125 166.90253 
L 130.559806 166.483515 
L 133.578486 166.268372 
L 137.200903 166.25433 
L 140.823319 166.480293 
L 144.445736 166.921034 
L 148.671889 167.676458 
L 149.275625 167.803787 
L 151.690569 158.047192 
L 154.105514 149.452317 
L 156.520458 141.913687 
L 158.331667 136.894713 
L 160.142875 132.378235 
L 161.954083 128.329379 
L 163.765292 124.715607 
L 165.5765 121.506569 
L 167.387708 118.673949 
L 169.198917 116.191334 
L 171.010125 114.034083 
L 172.821333 112.179211 
L 174.632542 110.605274 
L 176.44375 109.292273 
L 178.254958 108.221548 
L 180.066167 107.375695 
L 181.877375 106.738482 
L 183.688583 106.294765 
L 185.499792 106.030422 
L 187.914736 105.93435 
L 190.329681 106.105047 
L 192.744625 106.516272 
L 195.159569 107.144116 
L 198.17825 108.200543 
L 201.196931 109.523214 
L 204.215611 111.078023 
L 207.838028 113.207734 
L 211.460444 115.582083 
L 215.686597 118.60821 
L 220.516486 122.338192 
L 221.723958 123.308169 
L 223.535167 116.947462 
L 225.346375 111.243099 
L 227.157583 106.148416 
L 228.968792 101.619927 
L 230.78 97.617106 
L 232.591208 94.102189 
L 234.402417 91.039986 
L 236.213625 88.397707 
L 238.024833 86.144801 
L 239.836042 84.252803 
L 241.64725 82.695194 
L 243.458458 81.447268 
L 245.269667 80.486011 
L 247.080875 79.789985 
L 248.892083 79.339222 
L 250.703292 79.115128 
L 252.5145 79.100381 
L 254.325708 79.278855 
L 256.136917 79.635532 
L 258.551861 80.364282 
L 260.966806 81.354592 
L 263.38175 82.57874 
L 266.400431 84.399607 
L 269.419111 86.502468 
L 273.041528 89.343292 
L 276.663944 92.47469 
L 280.890097 96.427228 
L 285.719986 101.2549 
L 291.757347 107.630912 
L 299.605917 116.284139 
L 314.095583 132.690523 
L 327.981514 148.288935 
L 338.245028 159.482718 
L 347.301069 169.03814 
L 355.753375 177.652561 
L 364.205681 185.95888 
L 372.657986 193.95195 
L 381.110292 201.632787 
L 389.562597 209.006609 
L 398.014903 216.081429 
L 406.467208 222.867044 
L 414.919514 229.374329 
L 423.371819 235.614726 
L 432.427861 242.017948 
L 441.483903 248.142469 
L 450.539944 254.002313 
L 460.199722 259.976394 
L 469.8595 265.680655 
L 479.519278 271.130214 
L 489.782792 276.657325 
L 500.046306 281.929333 
L 510.913556 287.250359 
L 521.780806 292.319468 
L 533.251792 297.41438 
L 544.722778 302.263575 
L 556.7975 307.120201 
L 568.872222 311.739741 
L 581.550681 316.352626 
L 594.832875 320.942396 
L 608.115069 325.301511 
L 622.001 329.630092 
L 636.490667 333.916047 
L 651.584069 338.148912 
L 667.281208 342.319779 
L 683.582083 346.421197 
L 700.486694 350.44707 
L 717.995042 354.392532 
L 736.710861 358.378888 
L 756.030417 362.264542 
L 776.557444 366.160036 
L 797.688208 369.941363 
L 820.026444 373.708927 
L 842.968417 377.354366 
L 867.117861 380.968497 
L 892.474778 384.53911 
L 909.983125 386.881261 
L 909.983125 386.881261 
" clip-path="url(#pe1f3085670)" style="fill: none; stroke-dasharray: 2.4,3.96; stroke-dashoffset: 0; stroke: #1f77b4; stroke-width: 2.4"/>
   </g>
   <g id="line2d_72">
    <path d="M 40.603125 455.9395 
L 43.018069 425.006883 
L 45.433014 397.355576 
L 47.847958 372.684275 
L 50.262903 350.718674 
L 52.677847 331.20906 
L 55.092792 313.92812 
L 57.507736 298.668937 
L 59.318944 288.437381 
L 61.130153 279.163643 
L 62.941361 270.779572 
L 64.752569 263.221673 
L 66.563778 256.430782 
L 68.374986 250.35178 
L 70.186194 244.933314 
L 71.997403 240.127546 
L 73.808611 235.88991 
L 75.619819 232.178896 
L 77.431028 228.955838 
L 79.242236 226.184723 
L 81.053444 223.832012 
L 82.864653 221.866472 
L 84.675861 220.259018 
L 86.487069 218.98257 
L 88.298278 218.011912 
L 90.109486 217.323574 
L 91.920694 216.895703 
L 93.731903 216.707964 
L 95.543111 216.741426 
L 97.354319 216.978478 
L 99.165528 217.402729 
L 101.580472 218.233396 
L 103.995417 219.336643 
L 106.410361 220.682298 
L 109.429042 222.663785 
L 112.447722 224.933467 
L 116.070139 227.97808 
L 119.692556 231.312672 
L 123.918708 235.496172 
L 129.352333 241.225798 
L 135.993431 248.592118 
L 146.256944 260.374539 
L 163.765292 280.485968 
L 172.821333 290.536584 
L 181.273639 299.5828 
L 189.122208 307.654902 
L 196.970778 315.391647 
L 204.215611 322.228224 
L 211.460444 328.770902 
L 218.705278 335.022605 
L 225.950111 340.988988 
L 233.194944 346.677598 
L 240.439778 352.097249 
L 247.684611 357.257556 
L 255.533181 362.566915 
L 263.38175 367.596801 
L 271.230319 372.360296 
L 279.078889 376.87031 
L 287.531194 381.458218 
L 295.9835 385.78199 
L 304.435806 389.856255 
L 312.888111 393.694994 
L 321.944153 397.561678 
L 331.000194 401.188788 
L 340.659972 404.81014 
L 350.31975 408.192312 
L 360.583264 411.541331 
L 370.846778 414.655627 
L 381.714028 417.715476 
L 392.581278 420.548625 
L 404.052264 423.311738 
L 416.126986 425.98759 
L 428.805444 428.561411 
L 442.087639 431.020924 
L 455.973569 433.356331 
L 470.463236 435.560251 
L 485.556639 437.627611 
L 501.253778 439.555505 
L 518.158389 441.405337 
L 536.270472 443.156176 
L 555.590028 444.791907 
L 576.117056 446.301166 
L 597.851556 447.677096 
L 621.397264 448.946939 
L 647.357917 450.122042 
L 675.733514 451.181796 
L 707.127792 452.130855 
L 742.748222 452.98056 
L 783.198542 453.718053 
L 830.289958 454.348407 
L 886.437417 454.870735 
L 909.983125 455.034993 
L 909.983125 455.034993 
" clip-path="url(#pe1f3085670)" style="fill: none; stroke-dasharray: 5.92,2.56; stroke-dashoffset: 0; stroke: #ff7f0e; stroke-width: 1.6"/>
   </g>
   <g id="line2d_73">
    <path d="M 94.939375 455.9395 
L 97.354319 445.628628 
L 99.769264 436.411525 
L 102.184208 428.187758 
L 104.599153 420.865891 
L 107.014097 414.362687 
L 109.429042 408.602373 
L 111.843986 403.515979 
L 114.258931 399.040725 
L 116.673875 395.119474 
L 119.088819 391.700224 
L 121.503764 388.735653 
L 123.918708 386.1827 
L 126.333653 384.002182 
L 128.748597 382.158453 
L 131.163542 380.619083 
L 133.578486 379.354574 
L 135.993431 378.338097 
L 138.408375 377.545253 
L 140.823319 376.953857 
L 143.842 376.467344 
L 146.860681 376.228802 
L 149.879361 376.206809 
L 153.501778 376.427243 
L 157.124194 376.8773 
L 161.350347 377.644107 
L 166.180236 378.779196 
L 171.613861 380.313097 
L 177.651222 382.253643 
L 185.499792 385.02718 
L 196.970778 389.355292 
L 224.742639 399.922969 
L 236.817361 404.241627 
L 248.288347 408.111796 
L 259.759333 411.739347 
L 271.230319 415.121896 
L 282.701306 418.26488 
L 294.172292 421.178218 
L 306.247014 424.010321 
L 318.321736 426.617172 
L 331.000194 429.129282 
L 344.282389 431.532961 
L 358.168319 433.817403 
L 372.657986 435.974534 
L 387.751389 437.998815 
L 404.052264 439.955544 
L 420.956875 441.759873 
L 439.068958 443.467821 
L 458.388514 445.063579 
L 478.915542 446.53601 
L 501.253778 447.91281 
L 525.403222 449.17542 
L 551.967611 450.336149 
L 580.946944 451.376464 
L 613.548694 452.317816 
L 649.772861 453.137823 
L 691.430653 453.854041 
L 740.333278 454.464858 
L 798.895681 454.965766 
L 871.94775 455.359275 
L 909.983125 455.496372 
L 909.983125 455.496372 
" clip-path="url(#pe1f3085670)" style="fill: none; stroke-dasharray: 5.92,2.56; stroke-dashoffset: 0; stroke: #2ca02c; stroke-width: 1.6"/>
   </g>
   <g id="line2d_74">
    <path d="M 149.275625 455.9395 
L 151.690569 440.473192 
L 154.105514 426.647538 
L 156.520458 414.311888 
L 158.935403 403.329087 
L 161.350347 393.57428 
L 163.765292 384.93381 
L 166.180236 377.304218 
L 168.595181 370.591338 
L 171.010125 364.709461 
L 173.425069 359.580586 
L 175.236278 356.185141 
L 177.047486 353.14564 
L 178.858694 350.436407 
L 180.669903 348.033523 
L 182.481111 345.914705 
L 184.292319 344.059198 
L 186.103528 342.447669 
L 187.914736 341.062111 
L 190.329681 339.537396 
L 192.744625 338.34813 
L 195.159569 337.461035 
L 197.574514 336.845854 
L 199.989458 336.475086 
L 202.404403 336.323732 
L 204.819347 336.369078 
L 207.838028 336.671114 
L 210.856708 337.212191 
L 213.875389 337.960222 
L 217.497806 339.09124 
L 221.723958 340.67883 
L 225.950111 342.499896 
L 231.383736 345.106183 
L 237.421097 348.256465 
L 245.269667 352.607496 
L 259.759333 360.953824 
L 275.456472 369.906228 
L 286.323722 375.844161 
L 295.9835 380.880442 
L 305.643278 385.665574 
L 315.303056 390.190597 
L 324.962833 394.455116 
L 334.622611 398.464244 
L 344.282389 402.226535 
L 353.942167 405.752577 
L 364.205681 409.253208 
L 374.469194 412.51488 
L 385.336444 415.724174 
L 396.203694 418.698859 
L 407.674681 421.602244 
L 419.145667 424.280478 
L 431.220389 426.875136 
L 443.898847 429.371554 
L 457.181042 431.757569 
L 471.066972 434.023493 
L 485.556639 436.162037 
L 500.650042 438.168192 
L 516.950917 440.106968 
L 533.855528 441.894487 
L 551.967611 443.586374 
L 571.287167 445.167044 
L 591.814194 446.625506 
L 614.152431 447.989221 
L 638.301875 449.23982 
L 664.866264 450.389501 
L 693.845597 451.419912 
L 726.447347 452.352301 
L 763.27525 453.176348 
L 805.536778 453.8915 
L 855.043139 454.497528 
L 909.983125 454.962578 
L 909.983125 454.962578 
" clip-path="url(#pe1f3085670)" style="fill: none; stroke-dasharray: 5.92,2.56; stroke-dashoffset: 0; stroke: #d62728; stroke-width: 1.6"/>
   </g>
   <g id="line2d_75">
    <path d="M 176.44375 455.9395 
L 178.858694 450.784064 
L 181.273639 446.175513 
L 183.688583 442.063629 
L 186.103528 438.402696 
L 188.518472 435.151093 
L 190.933417 432.270937 
L 193.348361 429.727739 
L 195.763306 427.490113 
L 198.17825 425.529487 
L 200.593194 423.819862 
L 203.008139 422.337577 
L 206.026819 420.771802 
L 209.0455 419.489909 
L 212.064181 418.458276 
L 215.082861 417.647037 
L 218.705278 416.927329 
L 222.327694 416.446678 
L 226.553847 416.141757 
L 230.78 416.067385 
L 235.609889 416.21343 
L 241.043514 416.613074 
L 247.080875 417.281891 
L 254.325708 418.311667 
L 263.38175 419.829494 
L 276.663944 422.299846 
L 312.888111 429.133489 
L 329.188986 431.926792 
L 344.886125 434.386675 
L 360.583264 436.618601 
L 376.884139 438.705757 
L 393.78875 440.640205 
L 411.297097 442.419492 
L 430.012917 444.095743 
L 449.936208 445.65374 
L 471.066972 447.083518 
L 494.008944 448.412096 
L 518.762125 449.623108 
L 545.93025 450.729296 
L 576.117056 451.732752 
L 609.926278 452.629045 
L 647.961653 453.411245 
L 692.034389 454.0895 
L 743.955694 454.659041 
L 807.347986 455.122441 
L 888.248625 455.478975 
L 909.983125 455.544717 
L 909.983125 455.544717 
" clip-path="url(#pe1f3085670)" style="fill: none; stroke-dasharray: 5.92,2.56; stroke-dashoffset: 0; stroke: #9467bd; stroke-width: 1.6"/>
   </g>
   <g id="line2d_76">
    <path d="M 221.723958 455.9395 
L 224.138903 440.473192 
L 226.553847 426.647538 
L 228.968792 414.311888 
L 231.383736 403.329087 
L 233.798681 393.57428 
L 236.213625 384.93381 
L 238.628569 377.304218 
L 241.043514 370.591338 
L 243.458458 364.709461 
L 245.873403 359.580586 
L 247.684611 356.185141 
L 249.495819 353.14564 
L 251.307028 350.436407 
L 253.118236 348.033523 
L 254.929444 345.914705 
L 256.740653 344.059198 
L 258.551861 342.447669 
L 260.363069 341.062111 
L 262.778014 339.537396 
L 265.192958 338.34813 
L 267.607903 337.461035 
L 270.022847 336.845854 
L 272.437792 336.475086 
L 274.852736 336.323732 
L 277.267681 336.369078 
L 280.286361 336.671114 
L 283.305042 337.212191 
L 286.323722 337.960222 
L 289.946139 339.09124 
L 294.172292 340.67883 
L 298.398444 342.499896 
L 303.832069 345.106183 
L 309.869431 348.256465 
L 317.718 352.607496 
L 332.207667 360.953824 
L 347.904806 369.906228 
L 358.772056 375.844161 
L 368.431833 380.880442 
L 378.091611 385.665574 
L 387.751389 390.190597 
L 397.411167 394.455116 
L 407.070944 398.464244 
L 416.730722 402.226535 
L 426.3905 405.752577 
L 436.654014 409.253208 
L 446.917528 412.51488 
L 457.784778 415.724174 
L 468.652028 418.698859 
L 480.123014 421.602244 
L 491.594 424.280478 
L 503.668722 426.875136 
L 516.347181 429.371554 
L 529.629375 431.757569 
L 543.515306 434.023493 
L 558.004972 436.162037 
L 573.098375 438.168192 
L 589.39925 440.106968 
L 606.303861 441.894487 
L 624.415944 443.586374 
L 643.7355 445.167044 
L 664.262528 446.625506 
L 686.600764 447.989221 
L 710.750208 449.23982 
L 737.314597 450.389501 
L 766.293931 451.419912 
L 798.895681 452.352301 
L 835.723583 453.176348 
L 877.985111 453.8915 
L 909.983125 454.307031 
L 909.983125 454.307031 
" clip-path="url(#pe1f3085670)" style="fill: none; stroke-dasharray: 5.92,2.56; stroke-dashoffset: 0; stroke: #8c564b; stroke-width: 1.6"/>
   </g>
   <g id="line2d_77">
    <path d="M 40.603125 455.9395 
L 43.018069 425.006883 
L 45.433014 397.355576 
L 47.847958 372.684275 
L 50.262903 350.718674 
L 52.677847 331.20906 
L 55.092792 313.92812 
L 57.507736 298.668937 
L 59.318944 288.437381 
L 61.130153 279.163643 
L 62.941361 270.779572 
L 64.752569 263.221673 
L 66.563778 256.430782 
L 68.374986 250.35178 
L 70.186194 244.933314 
L 71.997403 240.127546 
L 73.808611 235.88991 
L 75.619819 232.178896 
L 77.431028 228.955838 
L 79.242236 226.184723 
L 81.053444 223.832012 
L 82.864653 221.866472 
L 84.675861 220.259018 
L 86.487069 218.98257 
L 88.298278 218.011912 
L 90.109486 217.323574 
L 91.920694 216.895703 
L 93.731903 216.707964 
L 94.939375 216.706807 
L 96.750583 209.038047 
L 98.561792 202.191829 
L 100.373 196.108665 
L 102.184208 190.73314 
L 103.995417 186.013633 
L 105.806625 181.90206 
L 107.617833 178.353639 
L 109.429042 175.326658 
L 111.24025 172.782275 
L 113.051458 170.684317 
L 114.862667 168.999105 
L 116.673875 167.695278 
L 118.485083 166.743642 
L 120.296292 166.117018 
L 122.1075 165.79011 
L 123.918708 165.739371 
L 125.729917 165.942892 
L 127.541125 166.380283 
L 129.352333 167.032575 
L 131.163542 167.882121 
L 133.578486 169.293488 
L 135.993431 170.990715 
L 138.408375 172.941345 
L 141.427056 175.691384 
L 144.445736 178.739994 
L 148.068153 182.728603 
L 149.275625 184.12696 
L 151.086833 174.521197 
L 152.898042 165.921725 
L 154.70925 158.255962 
L 156.520458 151.456289 
L 158.331667 145.459718 
L 160.142875 140.207573 
L 161.954083 135.645203 
L 163.765292 131.721706 
L 165.5765 128.389677 
L 167.387708 125.604967 
L 169.198917 123.326467 
L 171.010125 121.5159 
L 172.821333 120.137625 
L 174.632542 119.158467 
L 176.44375 118.547539 
L 178.254958 114.356181 
L 180.066167 110.792558 
L 181.877375 107.80984 
L 183.688583 105.364416 
L 185.499792 103.415683 
L 187.311 101.925833 
L 188.518472 101.170054 
L 189.725944 100.592709 
L 190.933417 100.184438 
L 192.140889 99.936314 
L 193.952097 99.845903 
L 195.763306 100.069722 
L 197.574514 100.582597 
L 199.385722 101.361107 
L 201.196931 102.383462 
L 203.008139 103.629396 
L 205.423083 105.606045 
L 207.838028 107.905749 
L 210.252972 110.491248 
L 213.271653 114.073843 
L 216.290333 117.991265 
L 219.91275 123.06093 
L 221.723958 125.723326 
L 223.535167 116.699053 
L 225.346375 108.684702 
L 227.157583 101.606896 
L 228.968792 95.397285 
L 230.78 89.992203 
L 232.591208 85.332353 
L 234.402417 81.362508 
L 236.213625 78.031237 
L 238.024833 75.290647 
L 239.836042 73.096143 
L 241.043514 71.915897 
L 242.250986 70.948257 
L 243.458458 70.182177 
L 244.665931 69.607124 
L 245.873403 69.213059 
L 247.080875 68.990411 
L 248.288347 68.930056 
L 250.099556 69.124914 
L 251.910764 69.637813 
L 253.721972 70.443026 
L 255.533181 71.516622 
L 257.344389 72.836337 
L 259.759333 74.943239 
L 262.174278 77.40594 
L 264.589222 80.183512 
L 267.607903 84.04204 
L 270.626583 88.269811 
L 274.249 93.750098 
L 278.475153 100.596598 
L 283.305042 108.87651 
L 289.342403 119.700798 
L 298.398444 136.479583 
L 317.718 172.395882 
L 326.170306 187.579337 
L 334.018875 201.214536 
L 341.263708 213.352312 
L 348.508542 225.03178 
L 355.149639 235.323642 
L 361.790736 245.215715 
L 368.431833 254.709766 
L 375.072931 263.811244 
L 381.714028 272.528257 
L 388.355125 280.870788 
L 394.996222 288.850104 
L 401.637319 296.478302 
L 408.278417 303.767962 
L 414.919514 310.731894 
L 421.560611 317.382942 
L 428.201708 323.733842 
L 434.842806 329.797118 
L 442.087639 336.097936 
L 449.332472 342.086438 
L 456.577306 347.777515 
L 463.822139 353.185493 
L 471.066972 358.324119 
L 478.311806 363.206553 
L 486.160375 368.221329 
L 494.008944 372.96543 
L 501.857514 377.453333 
L 509.706083 381.698774 
L 518.158389 386.014557 
L 526.610694 390.079626 
L 535.063 393.908498 
L 544.119042 397.76429 
L 553.175083 401.380481 
L 562.834861 404.990393 
L 572.494639 408.361494 
L 582.758153 411.699262 
L 593.021667 414.802894 
L 603.888917 417.852119 
L 614.756167 420.675332 
L 626.227153 423.428683 
L 638.301875 426.095031 
L 650.980333 428.659676 
L 664.262528 431.110397 
L 678.148458 433.437441 
L 692.638125 435.633459 
L 707.731528 437.6934 
L 723.428667 439.614372 
L 740.333278 441.45756 
L 758.445361 443.20211 
L 777.764917 444.831964 
L 798.291944 446.3358 
L 820.630181 447.741936 
L 844.779625 449.031435 
L 870.740278 450.192338 
L 899.719611 451.259355 
L 909.983125 451.587691 
L 909.983125 451.587691 
" clip-path="url(#pe1f3085670)" style="fill: none; stroke: #e377c2; stroke-width: 2.8; stroke-linecap: square"/>
   </g>
   <g id="line2d_78">
    <path d="M 40.603125 455.9395 
L 40.603125 35.7555 
" clip-path="url(#pe1f3085670)" style="fill: none; stroke-dasharray: 3.7,1.6; stroke-dashoffset: 0; stroke: #ff7f0e; stroke-opacity: 0.52"/>
   </g>
   <g id="line2d_79">
    <path d="M 94.939375 455.9395 
L 94.939375 35.7555 
" clip-path="url(#pe1f3085670)" style="fill: none; stroke-dasharray: 3.7,1.6; stroke-dashoffset: 0; stroke: #2ca02c; stroke-opacity: 0.52"/>
   </g>
   <g id="line2d_80">
    <path d="M 149.275625 455.9395 
L 149.275625 35.7555 
" clip-path="url(#pe1f3085670)" style="fill: none; stroke-dasharray: 3.7,1.6; stroke-dashoffset: 0; stroke: #d62728; stroke-opacity: 0.52"/>
   </g>
   <g id="line2d_81">
    <path d="M 176.44375 455.9395 
L 176.44375 35.7555 
" clip-path="url(#pe1f3085670)" style="fill: none; stroke-dasharray: 3.7,1.6; stroke-dashoffset: 0; stroke: #9467bd; stroke-opacity: 0.52"/>
   </g>
   <g id="line2d_82">
    <path d="M 221.723958 455.9395 
L 221.723958 35.7555 
" clip-path="url(#pe1f3085670)" style="fill: none; stroke-dasharray: 3.7,1.6; stroke-dashoffset: 0; stroke: #8c564b; stroke-opacity: 0.52"/>
   </g>
   <g id="patch_3">
    <path d="M 40.603125 455.9395 
L 40.603125 35.7555 
" style="fill: none; stroke: #000000; stroke-width: 0.8; stroke-linejoin: miter; stroke-linecap: square"/>
   </g>
   <g id="patch_4">
    <path d="M 909.983125 455.9395 
L 909.983125 35.7555 
" style="fill: none; stroke: #000000; stroke-width: 0.8; stroke-linejoin: miter; stroke-linecap: square"/>
   </g>
   <g id="patch_5">
    <path d="M 40.603125 455.9395 
L 909.983125 455.9395 
" style="fill: none; stroke: #000000; stroke-width: 0.8; stroke-linejoin: miter; stroke-linecap: square"/>
   </g>
   <g id="patch_6">
    <path d="M 40.603125 35.7555 
L 909.983125 35.7555 
" style="fill: none; stroke: #000000; stroke-width: 0.8; stroke-linejoin: miter; stroke-linecap: square"/>
   </g>
   <g id="text_38">
    <!-- Dex-only Model vs Vyvanse+Dex Reference -->
    <g transform="translate(343.901563 16.318125) scale(0.12 -0.12)">
     <defs>
      <path id="DejaVuSans-78" d="M 3513 3500 
L 2247 1797 
L 3578 0 
L 2900 0 
L 1881 1375 
L 863 0 
L 184 0 
L 1544 1831 
L 300 3500 
L 978 3500 
L 1906 2253 
L 2834 3500 
L 3513 3500 
z
" transform="scale(0.015625)"/>
      <path id="DejaVuSans-2d" d="M 313 2009 
L 1997 2009 
L 1997 1497 
L 313 1497 
L 313 2009 
z
" transform="scale(0.015625)"/>
      <path id="DejaVuSans-4d" d="M 628 4666 
L 1569 4666 
L 2759 1491 
L 3956 4666 
L 4897 4666 
L 4897 0 
L 4281 0 
L 4281 4097 
L 3078 897 
L 2444 897 
L 1241 4097 
L 1241 0 
L 628 0 
L 628 4666 
z
" transform="scale(0.015625)"/>
      <path id="DejaVuSans-64" d="M 2906 2969 
L 2906 4863 
L 3481 4863 
L 3481 0 
L 2906 0 
L 2906 525 
Q 2725 213 2448 61 
Q 2172 -91 1784 -91 
Q 1150 -91 751 415 
Q 353 922 353 1747 
Q 353 2572 751 3078 
Q 1150 3584 1784 3584 
Q 2172 3584 2448 3432 
Q 2725 3281 2906 2969 
z
M 947 1747 
Q 947 1113 1208 752 
Q 1469 391 1925 391 
Q 2381 391 2643 752 
Q 2906 1113 2906 1747 
Q 2906 2381 2643 2742 
Q 2381 3103 1925 3103 
Q 1469 3103 1208 2742 
Q 947 2381 947 1747 
z
" transform="scale(0.015625)"/>
      <path id="DejaVuSans-56" d="M 1831 0 
L 50 4666 
L 709 4666 
L 2188 738 
L 3669 4666 
L 4325 4666 
L 2547 0 
L 1831 0 
z
" transform="scale(0.015625)"/>
      <path id="DejaVuSans-2b" d="M 2944 4013 
L 2944 2272 
L 4684 2272 
L 4684 1741 
L 2944 1741 
L 2944 0 
L 2419 0 
L 2419 1741 
L 678 1741 
L 678 2272 
L 2419 2272 
L 2419 4013 
L 2944 4013 
z
" transform="scale(0.015625)"/>
     </defs>
     <use xlink:href="#DejaVuSans-44"/>
     <use xlink:href="#DejaVuSans-65" transform="translate(77.001953 0)"/>
     <use xlink:href="#DejaVuSans-78" transform="translate(136.775391 0)"/>
     <use xlink:href="#DejaVuSans-2d" transform="translate(195.955078 0)"/>
     <use xlink:href="#DejaVuSans-6f" transform="translate(233.914062 0)"/>
     <use xlink:href="#DejaVuSans-6e" transform="translate(295.095703 0)"/>
     <use xlink:href="#DejaVuSans-6c" transform="translate(358.474609 0)"/>
     <use xlink:href="#DejaVuSans-79" transform="translate(386.257812 0)"/>
     <use xlink:href="#DejaVuSans-20" transform="translate(445.4375 0)"/>
     <use xlink:href="#DejaVuSans-4d" transform="translate(477.224609 0)"/>
     <use xlink:href="#DejaVuSans-6f" transform="translate(563.503906 0)"/>
     <use xlink:href="#DejaVuSans-64" transform="translate(624.685547 0)"/>
     <use xlink:href="#DejaVuSans-65" transform="translate(688.162109 0)"/>
     <use xlink:href="#DejaVuSans-6c" transform="translate(749.685547 0)"/>
     <use xlink:href="#DejaVuSans-20" transform="translate(777.46875 0)"/>
     <use xlink:href="#DejaVuSans-76" transform="translate(809.255859 0)"/>
     <use xlink:href="#DejaVuSans-73" transform="translate(868.435547 0)"/>
     <use xlink:href="#DejaVuSans-20" transform="translate(920.535156 0)"/>
     <use xlink:href="#DejaVuSans-56" transform="translate(952.322266 0)"/>
     <use xlink:href="#DejaVuSans-79" transform="translate(1018.105469 0)"/>
     <use xlink:href="#DejaVuSans-76" transform="translate(1077.285156 0)"/>
     <use xlink:href="#DejaVuSans-61" transform="translate(1136.464844 0)"/>
     <use xlink:href="#DejaVuSans-6e" transform="translate(1197.744141 0)"/>
     <use xlink:href="#DejaVuSans-73" transform="translate(1261.123047 0)"/>
     <use xlink:href="#DejaVuSans-65" transform="translate(1313.222656 0)"/>
     <use xlink:href="#DejaVuSans-2b" transform="translate(1374.746094 0)"/>
     <use xlink:href="#DejaVuSans-44" transform="translate(1458.535156 0)"/>
     <use xlink:href="#DejaVuSans-65" transform="translate(1535.537109 0)"/>
     <use xlink:href="#DejaVuSans-78" transform="translate(1595.310547 0)"/>
     <use xlink:href="#DejaVuSans-20" transform="translate(1654.490234 0)"/>
     <use xlink:href="#DejaVuSans-52" transform="translate(1686.277344 0)"/>
     <use xlink:href="#DejaVuSans-65" transform="translate(1751.259766 0)"/>
     <use xlink:href="#DejaVuSans-66" transform="translate(1812.783203 0)"/>
     <use xlink:href="#DejaVuSans-65" transform="translate(1847.988281 0)"/>
     <use xlink:href="#DejaVuSans-72" transform="translate(1909.511719 0)"/>
     <use xlink:href="#DejaVuSans-65" transform="translate(1948.375 0)"/>
     <use xlink:href="#DejaVuSans-6e" transform="translate(2009.898438 0)"/>
     <use xlink:href="#DejaVuSans-63" transform="translate(2073.277344 0)"/>
     <use xlink:href="#DejaVuSans-65" transform="translate(2128.257812 0)"/>
    </g>
    <!-- Dex IR: Perceived effect  ka=1.40, t1/2=2.7h -->
    <g transform="translate(334.206875 29.7555) scale(0.12 -0.12)">
     <defs>
      <path id="DejaVuSans-49" d="M 628 4666 
L 1259 4666 
L 1259 0 
L 628 0 
L 628 4666 
z
" transform="scale(0.015625)"/>
      <path id="DejaVuSans-3a" d="M 750 794 
L 1409 794 
L 1409 0 
L 750 0 
L 750 794 
z
M 750 3309 
L 1409 3309 
L 1409 2516 
L 750 2516 
L 750 3309 
z
" transform="scale(0.015625)"/>
      <path id="DejaVuSans-50" d="M 1259 4147 
L 1259 2394 
L 2053 2394 
Q 2494 2394 2734 2622 
Q 2975 2850 2975 3272 
Q 2975 3691 2734 3919 
Q 2494 4147 2053 4147 
L 1259 4147 
z
M 628 4666 
L 2053 4666 
Q 2838 4666 3239 4311 
Q 3641 3956 3641 3272 
Q 3641 2581 3239 2228 
Q 2838 1875 2053 1875 
L 1259 1875 
L 1259 0 
L 628 0 
L 628 4666 
z
" transform="scale(0.015625)"/>
      <path id="DejaVuSans-2014" d="M 313 1978 
L 6088 1978 
L 6088 1528 
L 313 1528 
L 313 1978 
z
" transform="scale(0.015625)"/>
      <path id="DejaVuSans-6b" d="M 581 4863 
L 1159 4863 
L 1159 1991 
L 2875 3500 
L 3609 3500 
L 1753 1863 
L 3688 0 
L 2938 0 
L 1159 1709 
L 1159 0 
L 581 0 
L 581 4863 
z
" transform="scale(0.015625)"/>
      <path id="DejaVuSans-3d" d="M 678 2906 
L 4684 2906 
L 4684 2381 
L 678 2381 
L 678 2906 
z
M 678 1631 
L 4684 1631 
L 4684 1100 
L 678 1100 
L 678 1631 
z
" transform="scale(0.015625)"/>
      <path id="DejaVuSans-2e" d="M 684 794 
L 1344 794 
L 1344 0 
L 684 0 
L 684 794 
z
" transform="scale(0.015625)"/>
      <path id="DejaVuSans-2c" d="M 750 794 
L 1409 794 
L 1409 256 
L 897 -744 
L 494 -744 
L 750 256 
L 750 794 
z
" transform="scale(0.015625)"/>
      <path id="DejaVuSans-2f" d="M 1625 4666 
L 2156 4666 
L 531 -594 
L 0 -594 
L 1625 4666 
z
" transform="scale(0.015625)"/>
      <path id="DejaVuSans-68" d="M 3513 2113 
L 3513 0 
L 2938 0 
L 2938 2094 
Q 2938 2591 2744 2837 
Q 2550 3084 2163 3084 
Q 1697 3084 1428 2787 
Q 1159 2491 1159 1978 
L 1159 0 
L 581 0 
L 581 4863 
L 1159 4863 
L 1159 2956 
Q 1366 3272 1645 3428 
Q 1925 3584 2291 3584 
Q 2894 3584 3203 3211 
Q 3513 2838 3513 2113 
z
" transform="scale(0.015625)"/>
     </defs>
     <use xlink:href="#DejaVuSans-44"/>
     <use xlink:href="#DejaVuSans-65" transform="translate(77.001953 0)"/>
     <use xlink:href="#DejaVuSans-78" transform="translate(136.775391 0)"/>
     <use xlink:href="#DejaVuSans-20" transform="translate(195.955078 0)"/>
     <use xlink:href="#DejaVuSans-49" transform="translate(227.742188 0)"/>
     <use xlink:href="#DejaVuSans-52" transform="translate(257.234375 0)"/>
     <use xlink:href="#DejaVuSans-3a" transform="translate(323.591797 0)"/>
     <use xlink:href="#DejaVuSans-20" transform="translate(357.283203 0)"/>
     <use xlink:href="#DejaVuSans-50" transform="translate(389.070312 0)"/>
     <use xlink:href="#DejaVuSans-65" transform="translate(445.748047 0)"/>
     <use xlink:href="#DejaVuSans-72" transform="translate(507.271484 0)"/>
     <use xlink:href="#DejaVuSans-63" transform="translate(546.134766 0)"/>
     <use xlink:href="#DejaVuSans-65" transform="translate(601.115234 0)"/>
     <use xlink:href="#DejaVuSans-69" transform="translate(662.638672 0)"/>
     <use xlink:href="#DejaVuSans-76" transform="translate(690.421875 0)"/>
     <use xlink:href="#DejaVuSans-65" transform="translate(749.601562 0)"/>
     <use xlink:href="#DejaVuSans-64" transform="translate(811.125 0)"/>
     <use xlink:href="#DejaVuSans-20" transform="translate(874.601562 0)"/>
     <use xlink:href="#DejaVuSans-65" transform="translate(906.388672 0)"/>
     <use xlink:href="#DejaVuSans-66" transform="translate(967.912109 0)"/>
     <use xlink:href="#DejaVuSans-66" transform="translate(1003.117188 0)"/>
     <use xlink:href="#DejaVuSans-65" transform="translate(1038.322266 0)"/>
     <use xlink:href="#DejaVuSans-63" transform="translate(1099.845703 0)"/>
     <use xlink:href="#DejaVuSans-74" transform="translate(1154.826172 0)"/>
     <use xlink:href="#DejaVuSans-20" transform="translate(1194.035156 0)"/>
     <use xlink:href="#DejaVuSans-2014" transform="translate(1225.822266 0)"/>
     <use xlink:href="#DejaVuSans-20" transform="translate(1325.822266 0)"/>
     <use xlink:href="#DejaVuSans-6b" transform="translate(1357.609375 0)"/>
     <use xlink:href="#DejaVuSans-61" transform="translate(1413.769531 0)"/>
     <use xlink:href="#DejaVuSans-3d" transform="translate(1475.048828 0)"/>
     <use xlink:href="#DejaVuSans-31" transform="translate(1558.837891 0)"/>
     <use xlink:href="#DejaVuSans-2e" transform="translate(1622.460938 0)"/>
     <use xlink:href="#DejaVuSans-34" transform="translate(1654.248047 0)"/>
     <use xlink:href="#DejaVuSans-30" transform="translate(1717.871094 0)"/>
     <use xlink:href="#DejaVuSans-2c" transform="translate(1781.494141 0)"/>
     <use xlink:href="#DejaVuSans-20" transform="translate(1813.28125 0)"/>
     <use xlink:href="#DejaVuSans-74" transform="translate(1845.068359 0)"/>
     <use xlink:href="#DejaVuSans-31" transform="translate(1884.277344 0)"/>
     <use xlink:href="#DejaVuSans-2f" transform="translate(1947.900391 0)"/>
     <use xlink:href="#DejaVuSans-32" transform="translate(1981.591797 0)"/>
     <use xlink:href="#DejaVuSans-3d" transform="translate(2045.214844 0)"/>
     <use xlink:href="#DejaVuSans-32" transform="translate(2129.003906 0)"/>
     <use xlink:href="#DejaVuSans-2e" transform="translate(2192.626953 0)"/>
     <use xlink:href="#DejaVuSans-37" transform="translate(2224.414062 0)"/>
     <use xlink:href="#DejaVuSans-68" transform="translate(2288.037109 0)"/>
    </g>
   </g>
   <g id="legend_1">
    <g id="patch_7">
     <path d="M 573.837344 95.79675 
L 903.683125 95.79675 
Q 905.483125 95.79675 905.483125 93.99675 
L 905.483125 42.0555 
Q 905.483125 40.2555 903.683125 40.2555 
L 573.837344 40.2555 
Q 572.037344 40.2555 572.037344 42.0555 
L 572.037344 93.99675 
Q 572.037344 95.79675 573.837344 95.79675 
z
" style="fill: #ffffff; opacity: 0.8; stroke: #cccccc; stroke-linejoin: miter"/>
    </g>
    <g id="line2d_83">
     <path d="M 575.637344 47.544094 
L 584.637344 47.544094 
L 593.637344 47.544094 
" style="fill: none; stroke-dasharray: 2.4,3.96; stroke-dashoffset: 0; stroke: #1f77b4; stroke-width: 2.4"/>
    </g>
    <g id="text_39">
     <!-- Total (Vyvanse + Dex reference) -->
     <g transform="translate(600.837344 50.694094) scale(0.09 -0.09)">
      <defs>
       <path id="DejaVuSans-54" d="M -19 4666 
L 3928 4666 
L 3928 4134 
L 2272 4134 
L 2272 0 
L 1638 0 
L 1638 4134 
L -19 4134 
L -19 4666 
z
" transform="scale(0.015625)"/>
      </defs>
      <use xlink:href="#DejaVuSans-54"/>
      <use xlink:href="#DejaVuSans-6f" transform="translate(44.083984 0)"/>
      <use xlink:href="#DejaVuSans-74" transform="translate(105.265625 0)"/>
      <use xlink:href="#DejaVuSans-61" transform="translate(144.474609 0)"/>
      <use xlink:href="#DejaVuSans-6c" transform="translate(205.753906 0)"/>
      <use xlink:href="#DejaVuSans-20" transform="translate(233.537109 0)"/>
      <use xlink:href="#DejaVuSans-28" transform="translate(265.324219 0)"/>
      <use xlink:href="#DejaVuSans-56" transform="translate(304.337891 0)"/>
      <use xlink:href="#DejaVuSans-79" transform="translate(370.121094 0)"/>
      <use xlink:href="#DejaVuSans-76" transform="translate(429.300781 0)"/>
      <use xlink:href="#DejaVuSans-61" transform="translate(488.480469 0)"/>
      <use xlink:href="#DejaVuSans-6e" transform="translate(549.759766 0)"/>
      <use xlink:href="#DejaVuSans-73" transform="translate(613.138672 0)"/>
      <use xlink:href="#DejaVuSans-65" transform="translate(665.238281 0)"/>
      <use xlink:href="#DejaVuSans-20" transform="translate(726.761719 0)"/>
      <use xlink:href="#DejaVuSans-2b" transform="translate(758.548828 0)"/>
      <use xlink:href="#DejaVuSans-20" transform="translate(842.337891 0)"/>
      <use xlink:href="#DejaVuSans-44" transform="translate(874.125 0)"/>
      <use xlink:href="#DejaVuSans-65" transform="translate(951.126953 0)"/>
      <use xlink:href="#DejaVuSans-78" transform="translate(1010.900391 0)"/>
      <use xlink:href="#DejaVuSans-20" transform="translate(1070.080078 0)"/>
      <use xlink:href="#DejaVuSans-72" transform="translate(1101.867188 0)"/>
      <use xlink:href="#DejaVuSans-65" transform="translate(1140.730469 0)"/>
      <use xlink:href="#DejaVuSans-66" transform="translate(1202.253906 0)"/>
      <use xlink:href="#DejaVuSans-65" transform="translate(1237.458984 0)"/>
      <use xlink:href="#DejaVuSans-72" transform="translate(1298.982422 0)"/>
      <use xlink:href="#DejaVuSans-65" transform="translate(1337.845703 0)"/>
      <use xlink:href="#DejaVuSans-6e" transform="translate(1399.369141 0)"/>
      <use xlink:href="#DejaVuSans-63" transform="translate(1462.748047 0)"/>
      <use xlink:href="#DejaVuSans-65" transform="translate(1517.728516 0)"/>
      <use xlink:href="#DejaVuSans-29" transform="translate(1579.251953 0)"/>
     </g>
    </g>
    <g id="line2d_84">
     <path d="M 575.637344 60.754406 
L 584.637344 60.754406 
L 593.637344 60.754406 
" style="fill: none; stroke-dasharray: 5.92,2.56; stroke-dashoffset: 0; stroke: #ff7f0e; stroke-width: 1.6"/>
    </g>
    <g id="text_40">
     <!-- Dex-only 15mg @ 8am -->
     <g transform="translate(600.837344 63.904406) scale(0.09 -0.09)">
      <defs>
       <path id="DejaVuSans-67" d="M 2906 1791 
Q 2906 2416 2648 2759 
Q 2391 3103 1925 3103 
Q 1463 3103 1205 2759 
Q 947 2416 947 1791 
Q 947 1169 1205 825 
Q 1463 481 1925 481 
Q 2391 481 2648 825 
Q 2906 1169 2906 1791 
z
M 3481 434 
Q 3481 -459 3084 -895 
Q 2688 -1331 1869 -1331 
Q 1566 -1331 1297 -1286 
Q 1028 -1241 775 -1147 
L 775 -588 
Q 1028 -725 1275 -790 
Q 1522 -856 1778 -856 
Q 2344 -856 2625 -561 
Q 2906 -266 2906 331 
L 2906 616 
Q 2728 306 2450 153 
Q 2172 0 1784 0 
Q 1141 0 747 490 
Q 353 981 353 1791 
Q 353 2603 747 3093 
Q 1141 3584 1784 3584 
Q 2172 3584 2450 3431 
Q 2728 3278 2906 2969 
L 2906 3500 
L 3481 3500 
L 3481 434 
z
" transform="scale(0.015625)"/>
       <path id="DejaVuSans-40" d="M 2381 1678 
Q 2381 1231 2603 976 
Q 2825 722 3213 722 
Q 3597 722 3817 978 
Q 4038 1234 4038 1678 
Q 4038 2116 3813 2373 
Q 3588 2631 3206 2631 
Q 2828 2631 2604 2375 
Q 2381 2119 2381 1678 
z
M 4084 744 
Q 3897 503 3655 389 
Q 3413 275 3091 275 
Q 2553 275 2217 664 
Q 1881 1053 1881 1678 
Q 1881 2303 2218 2693 
Q 2556 3084 3091 3084 
Q 3413 3084 3656 2967 
Q 3900 2850 4084 2613 
L 4084 3022 
L 4531 3022 
L 4531 722 
Q 4988 791 5245 1139 
Q 5503 1488 5503 2041 
Q 5503 2375 5404 2669 
Q 5306 2963 5106 3213 
Q 4781 3622 4314 3839 
Q 3847 4056 3297 4056 
Q 2913 4056 2559 3954 
Q 2206 3853 1906 3653 
Q 1416 3334 1139 2817 
Q 863 2300 863 1697 
Q 863 1200 1042 765 
Q 1222 331 1563 0 
Q 1891 -325 2322 -495 
Q 2753 -666 3244 -666 
Q 3647 -666 4036 -530 
Q 4425 -394 4750 -141 
L 5031 -488 
Q 4641 -791 4180 -952 
Q 3719 -1113 3244 -1113 
Q 2666 -1113 2153 -908 
Q 1641 -703 1241 -313 
Q 841 78 631 592 
Q 422 1106 422 1697 
Q 422 2266 634 2781 
Q 847 3297 1241 3688 
Q 1644 4084 2172 4295 
Q 2700 4506 3291 4506 
Q 3953 4506 4520 4234 
Q 5088 3963 5472 3463 
Q 5706 3156 5829 2797 
Q 5953 2438 5953 2053 
Q 5953 1231 5456 756 
Q 4959 281 4084 263 
L 4084 744 
z
" transform="scale(0.015625)"/>
      </defs>
      <use xlink:href="#DejaVuSans-44"/>
      <use xlink:href="#DejaVuSans-65" transform="translate(77.001953 0)"/>
      <use xlink:href="#DejaVuSans-78" transform="translate(136.775391 0)"/>
      <use xlink:href="#DejaVuSans-2d" transform="translate(195.955078 0)"/>
      <use xlink:href="#DejaVuSans-6f" transform="translate(233.914062 0)"/>
      <use xlink:href="#DejaVuSans-6e" transform="translate(295.095703 0)"/>
      <use xlink:href="#DejaVuSans-6c" transform="translate(358.474609 0)"/>
      <use xlink:href="#DejaVuSans-79" transform="translate(386.257812 0)"/>
      <use xlink:href="#DejaVuSans-20" transform="translate(445.4375 0)"/>
      <use xlink:href="#DejaVuSans-31" transform="translate(477.224609 0)"/>
      <use xlink:href="#DejaVuSans-35" transform="translate(540.847656 0)"/>
      <use xlink:href="#DejaVuSans-6d" transform="translate(604.470703 0)"/>
      <use xlink:href="#DejaVuSans-67" transform="translate(701.882812 0)"/>
      <use xlink:href="#DejaVuSans-20" transform="translate(765.359375 0)"/>
      <use xlink:href="#DejaVuSans-40" transform="translate(797.146484 0)"/>
      <use xlink:href="#DejaVuSans-20" transform="translate(897.146484 0)"/>
      <use xlink:href="#DejaVuSans-38" transform="translate(928.933594 0)"/>
      <use xlink:href="#DejaVuSans-61" transform="translate(992.556641 0)"/>
      <use xlink:href="#DejaVuSans-6d" transform="translate(1053.835938 0)"/>
     </g>
    </g>
    <g id="line2d_85">
     <path d="M 575.637344 73.964719 
L 584.637344 73.964719 
L 593.637344 73.964719 
" style="fill: none; stroke-dasharray: 5.92,2.56; stroke-dashoffset: 0; stroke: #2ca02c; stroke-width: 1.6"/>
    </g>
    <g id="text_41">
     <!-- Dex-only 5mg @ 9am -->
     <g transform="translate(600.837344 77.114719) scale(0.09 -0.09)">
      <use xlink:href="#DejaVuSans-44"/>
      <use xlink:href="#DejaVuSans-65" transform="translate(77.001953 0)"/>
      <use xlink:href="#DejaVuSans-78" transform="translate(136.775391 0)"/>
      <use xlink:href="#DejaVuSans-2d" transform="translate(195.955078 0)"/>
      <use xlink:href="#DejaVuSans-6f" transform="translate(233.914062 0)"/>
      <use xlink:href="#DejaVuSans-6e" transform="translate(295.095703 0)"/>
      <use xlink:href="#DejaVuSans-6c" transform="translate(358.474609 0)"/>
      <use xlink:href="#DejaVuSans-79" transform="translate(386.257812 0)"/>
      <use xlink:href="#DejaVuSans-20" transform="translate(445.4375 0)"/>
      <use xlink:href="#DejaVuSans-35" transform="translate(477.224609 0)"/>
      <use xlink:href="#DejaVuSans-6d" transform="translate(540.847656 0)"/>
      <use xlink:href="#DejaVuSans-67" transform="translate(638.259766 0)"/>
      <use xlink:href="#DejaVuSans-20" transform="translate(701.736328 0)"/>
      <use xlink:href="#DejaVuSans-40" transform="translate(733.523438 0)"/>
      <use xlink:href="#DejaVuSans-20" transform="translate(833.523438 0)"/>
      <use xlink:href="#DejaVuSans-39" transform="translate(865.310547 0)"/>
      <use xlink:href="#DejaVuSans-61" transform="translate(928.933594 0)"/>
      <use xlink:href="#DejaVuSans-6d" transform="translate(990.212891 0)"/>
     </g>
    </g>
    <g id="line2d_86">
     <path d="M 575.637344 87.175031 
L 584.637344 87.175031 
L 593.637344 87.175031 
" style="fill: none; stroke-dasharray: 5.92,2.56; stroke-dashoffset: 0; stroke: #d62728; stroke-width: 1.6"/>
    </g>
    <g id="text_42">
     <!-- Dex-only 7.5mg @ 11am -->
     <g transform="translate(600.837344 90.325031) scale(0.09 -0.09)">
      <use xlink:href="#DejaVuSans-44"/>
      <use xlink:href="#DejaVuSans-65" transform="translate(77.001953 0)"/>
      <use xlink:href="#DejaVuSans-78" transform="translate(136.775391 0)"/>
      <use xlink:href="#DejaVuSans-2d" transform="translate(195.955078 0)"/>
      <use xlink:href="#DejaVuSans-6f" transform="translate(233.914062 0)"/>
      <use xlink:href="#DejaVuSans-6e" transform="translate(295.095703 0)"/>
      <use xlink:href="#DejaVuSans-6c" transform="translate(358.474609 0)"/>
      <use xlink:href="#DejaVuSans-79" transform="translate(386.257812 0)"/>
      <use xlink:href="#DejaVuSans-20" transform="translate(445.4375 0)"/>
      <use xlink:href="#DejaVuSans-37" transform="translate(477.224609 0)"/>
      <use xlink:href="#DejaVuSans-2e" transform="translate(540.847656 0)"/>
      <use xlink:href="#DejaVuSans-35" transform="translate(572.634766 0)"/>
      <use xlink:href="#DejaVuSans-6d" transform="translate(636.257812 0)"/>
      <use xlink:href="#DejaVuSans-67" transform="translate(733.669922 0)"/>
      <use xlink:href="#DejaVuSans-20" transform="translate(797.146484 0)"/>
      <use xlink:href="#DejaVuSans-40" transform="translate(828.933594 0)"/>
      <use xlink:href="#DejaVuSans-20" transform="translate(928.933594 0)"/>
      <use xlink:href="#DejaVuSans-31" transform="translate(960.720703 0)"/>
      <use xlink:href="#DejaVuSans-31" transform="translate(1024.34375 0)"/>
      <use xlink:href="#DejaVuSans-61" transform="translate(1087.966797 0)"/>
      <use xlink:href="#DejaVuSans-6d" transform="translate(1149.246094 0)"/>
     </g>
    </g>
    <g id="line2d_87">
     <path d="M 764.484063 47.544094 
L 773.484063 47.544094 
L 782.484063 47.544094 
" style="fill: none; stroke-dasharray: 5.92,2.56; stroke-dashoffset: 0; stroke: #9467bd; stroke-width: 1.6"/>
    </g>
    <g id="text_43">
     <!-- Dex-only 2.5mg @ 11am -->
     <g transform="translate(789.684063 50.694094) scale(0.09 -0.09)">
      <use xlink:href="#DejaVuSans-44"/>
      <use xlink:href="#DejaVuSans-65" transform="translate(77.001953 0)"/>
      <use xlink:href="#DejaVuSans-78" transform="translate(136.775391 0)"/>
      <use xlink:href="#DejaVuSans-2d" transform="translate(195.955078 0)"/>
      <use xlink:href="#DejaVuSans-6f" transform="translate(233.914062 0)"/>
      <use xlink:href="#DejaVuSans-6e" transform="translate(295.095703 0)"/>
      <use xlink:href="#DejaVuSans-6c" transform="translate(358.474609 0)"/>
      <use xlink:href="#DejaVuSans-79" transform="translate(386.257812 0)"/>
      <use xlink:href="#DejaVuSans-20" transform="translate(445.4375 0)"/>
      <use xlink:href="#DejaVuSans-32" transform="translate(477.224609 0)"/>
      <use xlink:href="#DejaVuSans-2e" transform="translate(540.847656 0)"/>
      <use xlink:href="#DejaVuSans-35" transform="translate(572.634766 0)"/>
      <use xlink:href="#DejaVuSans-6d" transform="translate(636.257812 0)"/>
      <use xlink:href="#DejaVuSans-67" transform="translate(733.669922 0)"/>
      <use xlink:href="#DejaVuSans-20" transform="translate(797.146484 0)"/>
      <use xlink:href="#DejaVuSans-40" transform="translate(828.933594 0)"/>
      <use xlink:href="#DejaVuSans-20" transform="translate(928.933594 0)"/>
      <use xlink:href="#DejaVuSans-31" transform="translate(960.720703 0)"/>
      <use xlink:href="#DejaVuSans-31" transform="translate(1024.34375 0)"/>
      <use xlink:href="#DejaVuSans-61" transform="translate(1087.966797 0)"/>
      <use xlink:href="#DejaVuSans-6d" transform="translate(1149.246094 0)"/>
     </g>
    </g>
    <g id="line2d_88">
     <path d="M 764.484063 60.754406 
L 773.484063 60.754406 
L 782.484063 60.754406 
" style="fill: none; stroke-dasharray: 5.92,2.56; stroke-dashoffset: 0; stroke: #8c564b; stroke-width: 1.6"/>
    </g>
    <g id="text_44">
     <!-- Dex-only 7.5mg @ 1pm -->
     <g transform="translate(789.684063 63.904406) scale(0.09 -0.09)">
      <use xlink:href="#DejaVuSans-44"/>
      <use xlink:href="#DejaVuSans-65" transform="translate(77.001953 0)"/>
      <use xlink:href="#DejaVuSans-78" transform="translate(136.775391 0)"/>
      <use xlink:href="#DejaVuSans-2d" transform="translate(195.955078 0)"/>
      <use xlink:href="#DejaVuSans-6f" transform="translate(233.914062 0)"/>
      <use xlink:href="#DejaVuSans-6e" transform="translate(295.095703 0)"/>
      <use xlink:href="#DejaVuSans-6c" transform="translate(358.474609 0)"/>
      <use xlink:href="#DejaVuSans-79" transform="translate(386.257812 0)"/>
      <use xlink:href="#DejaVuSans-20" transform="translate(445.4375 0)"/>
      <use xlink:href="#DejaVuSans-37" transform="translate(477.224609 0)"/>
      <use xlink:href="#DejaVuSans-2e" transform="translate(540.847656 0)"/>
      <use xlink:href="#DejaVuSans-35" transform="translate(572.634766 0)"/>
      <use xlink:href="#DejaVuSans-6d" transform="translate(636.257812 0)"/>
      <use xlink:href="#DejaVuSans-67" transform="translate(733.669922 0)"/>
      <use xlink:href="#DejaVuSans-20" transform="translate(797.146484 0)"/>
      <use xlink:href="#DejaVuSans-40" transform="translate(828.933594 0)"/>
      <use xlink:href="#DejaVuSans-20" transform="translate(928.933594 0)"/>
      <use xlink:href="#DejaVuSans-31" transform="translate(960.720703 0)"/>
      <use xlink:href="#DejaVuSans-70" transform="translate(1024.34375 0)"/>
      <use xlink:href="#DejaVuSans-6d" transform="translate(1087.820312 0)"/>
     </g>
    </g>
    <g id="line2d_89">
     <path d="M 764.484063 73.964719 
L 773.484063 73.964719 
L 782.484063 73.964719 
" style="fill: none; stroke: #e377c2; stroke-width: 2.8; stroke-linecap: square"/>
    </g>
    <g id="text_45">
     <!-- Total (Dex-only model) -->
     <g transform="translate(789.684063 77.114719) scale(0.09 -0.09)">
      <use xlink:href="#DejaVuSans-54"/>
      <use xlink:href="#DejaVuSans-6f" transform="translate(44.083984 0)"/>
      <use xlink:href="#DejaVuSans-74" transform="translate(105.265625 0)"/>
      <use xlink:href="#DejaVuSans-61" transform="translate(144.474609 0)"/>
      <use xlink:href="#DejaVuSans-6c" transform="translate(205.753906 0)"/>
      <use xlink:href="#DejaVuSans-20" transform="translate(233.537109 0)"/>
      <use xlink:href="#DejaVuSans-28" transform="translate(265.324219 0)"/>
      <use xlink:href="#DejaVuSans-44" transform="translate(304.337891 0)"/>
      <use xlink:href="#DejaVuSans-65" transform="translate(381.339844 0)"/>
      <use xlink:href="#DejaVuSans-78" transform="translate(441.113281 0)"/>
      <use xlink:href="#DejaVuSans-2d" transform="translate(500.292969 0)"/>
      <use xlink:href="#DejaVuSans-6f" transform="translate(538.251953 0)"/>
      <use xlink:href="#DejaVuSans-6e" transform="translate(599.433594 0)"/>
      <use xlink:href="#DejaVuSans-6c" transform="translate(662.8125 0)"/>
      <use xlink:href="#DejaVuSans-79" transform="translate(690.595703 0)"/>
      <use xlink:href="#DejaVuSans-20" transform="translate(749.775391 0)"/>
      <use xlink:href="#DejaVuSans-6d" transform="translate(781.5625 0)"/>
      <use xlink:href="#DejaVuSans-6f" transform="translate(878.974609 0)"/>
      <use xlink:href="#DejaVuSans-64" transform="translate(940.15625 0)"/>
      <use xlink:href="#DejaVuSans-65" transform="translate(1003.632812 0)"/>
      <use xlink:href="#DejaVuSans-6c" transform="translate(1065.15625 0)"/>
      <use xlink:href="#DejaVuSans-29" transform="translate(1092.939453 0)"/>
     </g>
    </g>
   </g>
  </g>
 </g>
 <defs>
  <clipPath id="pe1f3085670">
   <rect x="40.603125" y="35.7555" width="869.38" height="420.184"/>
  </clipPath>
 </defs>
</svg>
